<?xml version="1.0" encoding="utf-8"?>
<!-- Generator: Adobe Illustrator 23.0.1, SVG Export Plug-In . SVG Version: 6.00 Build 0)  -->
<svg version="1.1" id="Layer_1" xmlns="http://www.w3.org/2000/svg" xmlns:xlink="http://www.w3.org/1999/xlink" x="0px" y="0px"
	 viewBox="0 0 100 100" style="enable-background:new 0 0 100 100;" xml:space="preserve">
<style type="text/css">
	.st0{fill:url(#SVGID_1_);}
	.st1{fill:url(#SVGID_2_);}
</style>
<g>
	<linearGradient id="SVGID_1_" gradientUnits="userSpaceOnUse" x1="25.6088" y1="92.2911" x2="74.3909" y2="7.7979">
		<stop  offset="0" style="stop-color:#8F24FB"/>
		<stop  offset="3.405130e-02" style="stop-color:#9329F3"/>
		<stop  offset="0.5135" style="stop-color:#CA6C89"/>
		<stop  offset="0.8452" style="stop-color:#ED9646"/>
		<stop  offset="1" style="stop-color:#FAA72C"/>
	</linearGradient>
	<path class="st0" d="M91.5,24.3c-1.4,1.4-2.8,2.9-4.3,4.5L87,28.9L85.1,31c3.1,5.7,4.8,12.1,4.8,19C89.9,72.1,72,90,50,90
		S10.1,72.1,10.1,50S28,10.1,50,10.1c8.6,0,16.5,2.7,23,7.3l0.9-0.6c2-1.8,4-3.5,6.1-5.2C71.8,5.2,61.4,1.3,50,1.3
		C23.1,1.3,1.2,23.1,1.2,50S23.1,98.8,50,98.8S98.8,77,98.8,50C98.8,40.6,96.1,31.8,91.5,24.3z M81.8,25.9
		C81.8,25.9,81.8,25.9,81.8,25.9C81.8,25.9,81.8,25.9,81.8,25.9C81.8,25.9,81.8,25.9,81.8,25.9L81.8,25.9z"/>
	<linearGradient id="SVGID_2_" gradientUnits="userSpaceOnUse" x1="33.1662" y1="54.6827" x2="97.7413" y2="30.6358">
		<stop  offset="0" style="stop-color:#8F24FB"/>
		<stop  offset="3.405130e-02" style="stop-color:#9329F3"/>
		<stop  offset="0.5135" style="stop-color:#CA6C89"/>
		<stop  offset="0.8452" style="stop-color:#ED9646"/>
		<stop  offset="1" style="stop-color:#FAA72C"/>
	</linearGradient>
	<path class="st1" d="M97.1,11c0,0-3.7,3.1-9.1,8.5c-0.2,0.2-0.4,0.4-0.7,0.7c-0.1,0.1-0.2,0.2-0.3,0.3c-1,1-2,2-3,3.1
		c-0.6,0.6-1.2,1.3-1.8,1.9c0,0,0,0,0,0c-0.1,0.1-0.3,0.2-0.4,0.4l0,0c0,0,0,0,0,0c-0.4,0.4-0.7,0.8-1.1,1.2
		c-9.2,10.1-20.3,24.2-27.5,39.8c0,0-7.2,4.6-9.9,7c0,0-3.6-17.4-15-26c0,0,7.1-7.7,11.4-4.4c4.4,3.3,7.8,13.2,7.8,13.2
		S59.4,38.6,76,23.1l0,0c0.6-0.5,1.2-1.1,1.8-1.6c0.4-0.3,0.7-0.7,1.1-1l0.1-0.1c1.8-1.6,3.7-3.2,5.6-4.7c3.3-2.6,6.8-5,10.3-7
		L97.1,11z"/>
</g>
</svg>
