<?xml version="1.0" encoding="utf-8"?>
<!-- Generator: Adobe Illustrator 23.0.1, SVG Export Plug-In . SVG Version: 6.00 Build 0)  -->
<svg version="1.1" id="Layer_1" xmlns="http://www.w3.org/2000/svg" xmlns:xlink="http://www.w3.org/1999/xlink" x="0px" y="0px"
	 viewBox="0 0 638.2 482.2" style="enable-background:new 0 0 638.2 482.2;" xml:space="preserve">
<style type="text/css">
	.st0{fill:none;}
	.st1{fill:url(#SVGID_1_);}
	.st2{fill:url(#SVGID_2_);}
	.st3{fill:url(#SVGID_3_);}
</style>
<path class="st0" d="M175.6,171.5C118.7,173.3,71.9,222.4,67.7,278c4.1-57,50.8-108.6,107.8-110.3
	C175.5,168.9,175.6,170.2,175.6,171.5z"/>
<linearGradient id="SVGID_1_" gradientUnits="userSpaceOnUse" x1="143.7904" y1="106.4062" x2="486.8522" y2="179.2387">
	<stop  offset="1.331947e-07" style="stop-color:#FFBF6E"/>
	<stop  offset="0.1283" style="stop-color:#F7B478"/>
	<stop  offset="0.3568" style="stop-color:#E19594"/>
	<stop  offset="0.6589" style="stop-color:#BD64C1"/>
	<stop  offset="1" style="stop-color:#8F24FB"/>
</linearGradient>
<path class="st1" d="M474.3,160.9v0.6c-6.9-0.3-13.8-0.1-20.7,0.4v-0.7c-0.1-75.1-61-135.9-136-135.9c-1.1,0-2.1,0-3.2,0
	c-0.3,0-0.7,0-1,0c-0.7,0-1.4,0-2,0.1c-0.3,0-0.7,0-1,0.1c0,0-0.1,0-0.1,0c-0.4,0-0.8,0.1-1.2,0.1c-0.2,0-0.3,0-0.5,0
	c-0.9,0.1-1.8,0.1-2.6,0.2c-0.3,0-0.6,0.1-0.9,0.1c-0.3,0-0.5,0.1-0.8,0.1c-0.2,0-0.4,0-0.6,0.1c-0.5,0-1,0.1-1.5,0.2
	c-0.4,0-0.8,0.1-1.2,0.2c-0.7,0.1-1.4,0.2-2.1,0.3c-0.2,0-0.5,0.1-0.7,0.1c-1,0.1-2,0.3-3,0.5c-0.6,0.1-1.2,0.2-1.8,0.3
	c-4.1,0.8-8.1,1.8-12.1,3c-0.5,0.2-1,0.3-1.4,0.4c-1.9,0.6-3.8,1.2-5.7,1.9c-0.6,0.2-1.2,0.5-1.9,0.7c-1.9,0.7-3.7,1.4-5.6,2.2
	c-0.6,0.2-1.2,0.5-1.8,0.8c-2.5,1.1-4.9,2.3-7.3,3.5c-0.5,0.3-1,0.5-1.5,0.8c-3,1.6-6,3.3-8.9,5.2c-1.1,0.7-2.1,1.4-3.2,2.1
	c-2.3,1.5-4.5,3.1-6.7,4.7c-0.8,0.6-1.5,1.2-2.3,1.8c-0.3,0.2-0.6,0.4-0.8,0.7c-0.7,0.5-1.4,1.1-2,1.6c-0.3,0.3-0.6,0.5-1,0.8
	c-0.9,0.8-1.7,1.5-2.6,2.3c-0.7,0.6-1.4,1.2-2,1.8c-0.1,0.1-0.1,0.1-0.2,0.1c-0.3,0.3-0.7,0.6-1,0.9c-0.6,0.6-1.2,1.1-1.8,1.7
	c-1.3,1.3-2.6,2.5-3.8,3.9c-1.5,1.6-3,3.2-4.5,4.9c-1.8,2.1-3.6,4.2-5.3,6.4c-0.8,1-1.5,2-2.3,3c-0.1,0.1-0.1,0.2-0.2,0.3
	c-0.7,1-1.4,2-2.1,3c-10.4,15.2-17.4,32.5-21.7,50.6c-6.1,25.7-6.8,53.2-4.6,78.8c0.9,10,2.6,20.3,6.4,29.7l0.1,0.3
	c2,5,4.7,9.7,8,13.9c-0.4-0.5-0.8-1-1.2-1.5c-0.1-0.2-0.3-0.3-0.4-0.5c-18.4-23.7-30.1-52.8-32.4-84.5c-0.3-3.8-0.4-7.5-0.4-11.4
	v-0.5c0-1.2,0-2.3,0-3.5C161.1,72.6,230.9,3.9,316.7,3.9C403.6,3.9,474,74.2,474.3,160.9z"/>
<linearGradient id="SVGID_2_" gradientUnits="userSpaceOnUse" x1="32.1838" y1="421.2836" x2="560.65" y2="230.416">
	<stop  offset="1.331947e-07" style="stop-color:#FFBF6E"/>
	<stop  offset="0.1237" style="stop-color:#FAB874"/>
	<stop  offset="0.3017" style="stop-color:#ECA585"/>
	<stop  offset="0.5124" style="stop-color:#D686A2"/>
	<stop  offset="0.7481" style="stop-color:#B65BC9"/>
	<stop  offset="1" style="stop-color:#8F24FB"/>
</linearGradient>
<path class="st2" d="M593,424.8c-14.7,16.1-32.9,28.9-52.8,37.8c-19,8.5-39.7,13.3-60.4,13.9c51.5-2,101-55.9,121.6-103.2
	c31.8-73.2-9.4-161-85.6-183.7c-48.2-14.3-103.1,0.1-137.5,36.9C353.8,252.7,347,283,341,317.1c-3.6,20.1-6.9,40.3-14.2,59.3
	c-26.2,68.4-94.6,99.8-164.3,99.8c-86.8,0-157.2-70.4-157.2-157.2c0-82,70.7-159.3,154-161.1h0.1l0.1,3.9l0.2,11.4l0.1,4.8
	c-70,2.2-127.5,62.5-132.7,130.9c-0.1,1.1-0.2,2.2-0.2,3.2c-0.1,2.3-0.2,4.5-0.2,6.8c0,75,60.8,135.8,135.8,135.8
	c34,0,67.4-13.2,92.4-36.3c0.8-0.7,1.5-1.4,2.2-2.1c0.5-0.5,1.1-1,1.6-1.6c18.3-18.6,28.8-42.2,35.4-67.3
	c5.6-21.3,8.4-43.6,10.7-64.8c0.3-2.5,0.7-4.9,1.2-7.4c0.1-0.3,0.1-0.7,0.2-1c0.6-3,1.4-6,2.3-8.9c10.1-32.9,37.3-62.7,65.8-79.7
	c6.1-3.6,12.4-6.9,18.9-9.7c0.1-0.1,0.2-0.1,0.4-0.2c19-8.3,39.4-13.2,60.2-14.6c6.9-0.5,13.8-0.6,20.7-0.3
	c29,1.1,57.7,8.9,82.7,23.3c4.9,2.9,9.7,6,14.3,9.4c35.1,25.9,58.3,67.2,62.2,110.7C637.6,347.8,622.4,392.6,593,424.8z"/>
<path class="st0" d="M453.6,161.3c-20.7,1.5-41.2,6.4-60.2,14.6c-0.1,0.1-0.3,0.1-0.4,0.2c-6.5,2.9-12.8,6.1-18.9,9.7
	c-28.4,17-55.6,46.7-65.8,79.7c-0.9,3-1.7,5.9-2.3,8.9c-0.1,0.3-0.1,0.6-0.2,1c-0.5,2.5-0.9,4.9-1.2,7.4
	c-2.4,21.1-5.1,43.5-10.7,64.8c-6.5,25.1-17,48.7-35.4,67.3c-0.5,0.5-1,1.1-1.6,1.6c-0.7,0.7-1.5,1.4-2.2,2.1
	c-24.9,23-58.4,36.3-92.4,36.3c-75,0-135.8-60.8-135.8-135.8c0-2.3,0.1-4.5,0.2-6.8c0.1-1.1,0.1-2.2,0.2-3.2
	c5.2-68.4,62.7-128.7,132.7-130.9l-0.1-4.8c2.3,31.7,14.1,60.8,32.4,84.5c0.1,0.2,0.3,0.3,0.4,0.5c0.4,0.5,0.8,1,1.2,1.5
	c-3.4-4.2-6-8.9-8-13.9l-0.1-0.3c-3.8-9.4-5.5-19.8-6.4-29.7c-2.2-25.6-1.5-53.1,4.6-78.8c4.3-18.1,11.3-35.4,21.7-50.6
	c0.7-1,1.4-2,2.1-3c0.1-0.1,0.1-0.2,0.2-0.3c0.8-1,1.5-2,2.3-3c1.7-2.2,3.5-4.4,5.3-6.4c1.4-1.7,3-3.3,4.5-4.9
	c1.3-1.3,2.5-2.6,3.8-3.9c0.6-0.6,1.2-1.1,1.8-1.7c0.3-0.3,0.7-0.6,1-0.9c0.1,0,0.1-0.1,0.2-0.1c0.7-0.6,1.4-1.2,2-1.8
	c0.9-0.8,1.7-1.5,2.6-2.3c0.3-0.3,0.7-0.5,1-0.8c0.7-0.5,1.4-1.1,2-1.6c0.3-0.3,0.6-0.5,0.8-0.7c0.8-0.6,1.5-1.2,2.3-1.8
	c2.2-1.6,4.4-3.2,6.7-4.7c1.1-0.7,2.1-1.4,3.2-2.1c2.9-1.8,5.9-3.5,8.9-5.2c0.5-0.3,1-0.5,1.5-0.8c2.4-1.3,4.8-2.4,7.3-3.5
	c0.6-0.3,1.2-0.5,1.8-0.8c1.8-0.8,3.7-1.5,5.6-2.2c0.6-0.2,1.2-0.5,1.9-0.7c1.9-0.7,3.8-1.3,5.7-1.9c0.5-0.1,1-0.3,1.4-0.4
	c4-1.2,8-2.2,12.1-3c0.6-0.1,1.2-0.2,1.8-0.3c1-0.2,2-0.3,3-0.5c0.3-0.1,0.7-0.1,1-0.2c0.6-0.1,1.2-0.2,1.8-0.3
	c0.4-0.1,0.8-0.1,1.2-0.2c0.5-0.1,1-0.1,1.5-0.2c0.2,0,0.4,0,0.6-0.1c0.3,0,0.5-0.1,0.8-0.1c0.3,0,0.6-0.1,0.9-0.1
	c0.9-0.1,1.7-0.2,2.6-0.2c0.2,0,0.3,0,0.5,0c0.4,0,0.8,0,1.2-0.1c0,0,0,0,0.1,0c0.3,0,0.7,0,1-0.1c0.7,0,1.4-0.1,2-0.1
	c0.3,0,0.7,0,1,0c1.1,0,2.1,0,3.2,0C392.6,25.4,453.5,86.2,453.6,161.3z"/>
<linearGradient id="SVGID_3_" gradientUnits="userSpaceOnUse" x1="304.3818" y1="25.9721" x2="305.0593" y2="26.2199">
	<stop  offset="0" style="stop-color:#80D0C7"/>
	<stop  offset="0.1199" style="stop-color:#81C4CB"/>
	<stop  offset="0.3368" style="stop-color:#84A4D4"/>
	<stop  offset="0.6259" style="stop-color:#8871E4"/>
	<stop  offset="0.9728" style="stop-color:#8E2AF9"/>
	<stop  offset="1" style="stop-color:#8F24FB"/>
</linearGradient>
<path class="st3" d="M305.1,26.1c-0.3,0-0.5,0.1-0.8,0.1c0.1,0,0.2,0,0.3,0C304.8,26.1,304.9,26.1,305.1,26.1z"/>
<path class="st0" d="M193.7,259.8c-0.4-0.5-0.8-1-1.2-1.5c-0.1-0.2-0.3-0.3-0.4-0.5c-2.7-3.6-4.8-7.6-6.5-11.9
	C187.7,250.8,190.3,255.5,193.7,259.8z"/>
<path class="st0" d="M299,26.8c-0.2,0-0.5,0.1-0.7,0.1c-1,0.1-2,0.3-3,0.5c-0.6,0.1-1.2,0.2-1.8,0.3c-4.1,0.8-8.1,1.8-12.1,3
	c-0.5,0.2-1,0.3-1.4,0.4c-1.9,0.6-3.8,1.2-5.7,1.9c-0.6,0.2-1.2,0.5-1.9,0.7c-1.9,0.7-3.7,1.4-5.6,2.2c-0.6,0.2-1.2,0.5-1.8,0.8
	c-2.5,1.1-4.9,2.3-7.3,3.5c-0.5,0.3-1,0.5-1.5,0.8c-3,1.6-6,3.3-8.9,5.2c-1.1,0.7-2.1,1.4-3.2,2.1c-2.3,1.5-4.5,3.1-6.7,4.7
	c-0.8,0.6-1.5,1.2-2.3,1.8c-0.3,0.2-0.6,0.4-0.8,0.7c-0.7,0.5-1.4,1.1-2,1.6c-0.3,0.3-0.6,0.5-1,0.8c-0.9,0.8-1.7,1.5-2.6,2.3
	c-0.7,0.6-1.4,1.2-2,1.8c-0.1,0.1-0.1,0.1-0.2,0.1c-0.3,0.3-0.7,0.6-1,0.9c-0.6,0.6-1.2,1.1-1.8,1.7c-1.3,1.3-2.6,2.5-3.8,3.9
	c-1.5,1.6-3,3.2-4.5,4.9c-1.8,2.1-3.6,4.2-5.3,6.4c-0.8,1-1.5,2-2.3,3c-0.1,0.1-0.1,0.2-0.2,0.3c-0.7,1-1.4,2-2.1,3
	c-10.4,15.2-17.4,32.5-21.7,50.6C194.1,79.6,240.7,34.8,299,26.8z"/>
<path class="st0" d="M301.1,26.5c-0.7,0.1-1.4,0.2-2.1,0.3c0.1,0,0.2,0,0.3,0C299.9,26.7,300.4,26.6,301.1,26.5z"/>
<path class="st0" d="M305.1,26.1c-0.3,0-0.5,0.1-0.8,0.1c0.1,0,0.2,0,0.3,0C304.8,26.1,304.9,26.1,305.1,26.1z"/>
<path class="st0" d="M294,347.6c-5.9,25.4-16.2,48.1-35.4,67.3C277,396.3,287.4,372.7,294,347.6z"/>
<path class="st0" d="M308.4,265.5c-0.8,3-1.6,5.9-2.3,8.9C306.7,271.4,307.4,268.5,308.4,265.5z"/>
</svg>
