<?xml version="1.0" encoding="utf-8"?>
<!-- Generator: Adobe Illustrator 23.0.1, SVG Export Plug-In . SVG Version: 6.00 Build 0)  -->
<svg version="1.1" id="Layer_1" xmlns="http://www.w3.org/2000/svg" xmlns:xlink="http://www.w3.org/1999/xlink" x="0px" y="0px"
	 viewBox="0 0 650 612" style="enable-background:new 0 0 650 612;" xml:space="preserve">
<style type="text/css">
	.st0{fill:#9900FF;}
</style>
<path id="cloud_1_" class="st0" d="M526.8,259.8c0,0,99.5,9.5,101.9,106.6c0.9,36.6-15,63.7-45.1,85.4
	c-17.2,12.4-41.5,15.6-62.7,17.8c-24.5,2.6-49.2,2.3-73.8,1.9c-115.3-1.2-230.6-3.2-345.9-5.2c-6.4-0.1-12-0.8-18.2-2.7
	C55,455,31.6,433,24.3,406.1c-7.6-27.8,2.6-58.8,24.3-78.9c18.1-16.7,48.1-25.3,73.3-26.8c0,0,11.7-29.4,12.8-31.4
	c12.8-21.8,32.5-39.6,57-49.4c10.2-4.1,21.1-6.8,32.1-8.3c6.3-0.9,12.7-1.2,19.1-1.5c6.6-0.3,15.5,2.7,21.4-0.4
	c2.6-1.4,4.4-3.8,6.1-6.2c11-15.3,19.7-29.1,35.6-40c38.4-26,91.5-28,134-9.9C483.9,172.2,518.8,215.2,526.8,259.8z"/>
</svg>
