<?xml version="1.0" encoding="utf-8"?>
<!-- Generator: Adobe Illustrator 23.0.1, SVG Export Plug-In . SVG Version: 6.00 Build 0)  -->
<svg version="1.1" id="Layer_1" xmlns="http://www.w3.org/2000/svg" xmlns:xlink="http://www.w3.org/1999/xlink" x="0px" y="0px"
	 viewBox="0 0 84.4 51.1" style="enable-background:new 0 0 84.4 51.1;" xml:space="preserve">
<style type="text/css">
	.st0{fill:none;stroke:#8F1E8B;stroke-width:2;stroke-miterlimit:10;}
</style>
<path id="cloud_1_" class="st0" d="M69,19.1c0,0,13.1,1.3,13.4,14.1c0.1,4.8-2,8.4-6,11.3c-2.3,1.6-5.5,2.1-8.3,2.4
	c-3.2,0.3-6.5,0.3-9.7,0.2c-15.2-0.2-30.4-0.4-45.6-0.7c-0.8,0-1.6-0.1-2.4-0.4c-3.7-1.1-6.8-4-7.7-7.6C1.8,34.7,3.1,30.6,6,28
	c2.4-2.2,6.3-3.3,9.7-3.5c0,0,1.5-3.9,1.7-4.1c1.7-2.9,4.3-5.2,7.5-6.5c1.4-0.5,2.8-0.9,4.2-1.1c0.8-0.1,1.7-0.2,2.5-0.2
	c0.9,0,2.1,0.4,2.8,0c0.3-0.2,0.6-0.5,0.8-0.8c1.4-2,2.6-3.8,4.7-5.3C45,3,52,2.7,57.6,5.1C63.4,7.5,68,13.2,69,19.1z"/>
</svg>
