<?xml version="1.0" encoding="utf-8"?>
<!-- Generator: Adobe Illustrator 23.0.1, SVG Export Plug-In . SVG Version: 6.00 Build 0)  -->
<svg version="1.1" id="Layer_1" xmlns="http://www.w3.org/2000/svg" xmlns:xlink="http://www.w3.org/1999/xlink" x="0px" y="0px"
	 viewBox="0 0 650 612" style="enable-background:new 0 0 650 612;" xml:space="preserve">
<style type="text/css">
	.st0{fill:#9900FF;}
</style>
<path class="st0" d="M98.5,297.4v256.1c0,23.1,18.7,41.8,41.8,41.8h99.1c10.1,0,18.3-8.2,18.3-18.3V426.1c0-10.4,8.4-18.9,18.9-18.9
	h87.2c8.3,0,15,6.7,15,15V578c0,9.5,7.7,17.2,17.2,17.2h104.1c22.9,0,41.5-18.6,41.5-41.5V297.4h37.1c23.6,0,35-29,17.6-45
	L338.2,22.7c-9-8-19.4-8.2-28.2,0L38.8,255.1c-15.8,14.6-5.7,41.1,15.8,41.5L98.5,297.4z"/>
</svg>
