<?xml version="1.0" encoding="utf-8"?>
<!-- Generator: Adobe Illustrator 23.0.1, SVG Export Plug-In . SVG Version: 6.00 Build 0)  -->
<svg version="1.1" id="Layer_1" xmlns="http://www.w3.org/2000/svg" xmlns:xlink="http://www.w3.org/1999/xlink" x="0px" y="0px"
	 viewBox="0 0 73.3 75" style="enable-background:new 0 0 73.3 75;" xml:space="preserve">
<style type="text/css">
	.st0{fill:none;stroke:#8F1E8B;stroke-width:2;stroke-miterlimit:10;}
</style>
<path class="st0" d="M10.9,36.3v29.5c0,2.7,2.2,4.8,4.8,4.8h11.4c1.2,0,2.1-0.9,2.1-2.1V51.2c0-1.2,1-2.2,2.2-2.2h10.1
	c1,0,1.7,0.8,1.7,1.7v18c0,1.1,0.9,2,2,2h12c2.6,0,4.8-2.1,4.8-4.8V36.3h4.3c2.7,0,4-3.3,2-5.2L38.6,4.6c-1-0.9-2.2-0.9-3.3,0
	L4.1,31.5c-1.8,1.7-0.7,4.7,1.8,4.8L10.9,36.3z"/>
</svg>
