<?xml version="1.0" encoding="utf-8"?>
<!-- Generator: Adobe Illustrator 23.0.1, SVG Export Plug-In . SVG Version: 6.00 Build 0)  -->
<svg version="1.1" id="Layer_1" xmlns="http://www.w3.org/2000/svg" xmlns:xlink="http://www.w3.org/1999/xlink" x="0px" y="0px"
	 viewBox="0 0 650 612" style="enable-background:new 0 0 650 612;" xml:space="preserve">
<style type="text/css">
	.st0{fill:#9900FF;}
	.st1{fill:none;stroke:#9900FF;stroke-width:27.65;stroke-linecap:round;stroke-linejoin:round;stroke-miterlimit:10;}
</style>
<g>
	<path class="st0" d="M251.3,486l166.5-29.8c0-43.7,26.2-69.9,51.6-102.3c19.6-25,31.7-59.1,38-89.8c11.2-54.4,5.4-105.8-28.2-150.4
		c-1.5-2-3-3.9-4.5-5.8c-49.1-60.1-127.3-82.6-201.5-63.3c-64.5,16.8-121.9,65-130.8,133.8c-7.3,56.3,14,113.2,43,160.4
		C203.7,368.7,244.6,451.6,251.3,486"/>
	<line class="st1" x1="269.9" y1="525.8" x2="405.4" y2="503.4"/>
	<line class="st1" x1="314.5" y1="575" x2="386.9" y2="559.8"/>
</g>
</svg>
