<?xml version="1.0" encoding="utf-8"?>
<!-- Generator: Adobe Illustrator 23.0.1, SVG Export Plug-In . SVG Version: 6.00 Build 0)  -->
<svg version="1.1" id="Layer_1" xmlns="http://www.w3.org/2000/svg" xmlns:xlink="http://www.w3.org/1999/xlink" x="0px" y="0px"
	 viewBox="0 0 51.3 72.2" style="enable-background:new 0 0 51.3 72.2;" xml:space="preserve">
<style type="text/css">
	.st0{fill:none;stroke:#8F1E8B;stroke-width:2;stroke-miterlimit:10;}
	.st1{fill:none;stroke:#8F1E8B;stroke-width:2;stroke-linecap:round;stroke-linejoin:round;stroke-miterlimit:10;}
</style>
<g>
	<path class="st0" d="M16.5,57.6l20.6-3.7c0-5.4,3.2-8.6,6.4-12.6c2.4-3.1,3.9-7.3,4.7-11.1c1.4-6.7,0.7-13.1-3.5-18.6
		c-0.2-0.2-0.4-0.5-0.6-0.7C38,3.5,28.4,0.7,19.2,3.1c-8,2.1-15,8-16.1,16.5c-0.9,6.9,1.7,14,5.3,19.8
		C10.6,43.1,15.7,53.3,16.5,57.6"/>
	<line class="st1" x1="18.8" y1="62.5" x2="35.5" y2="59.7"/>
	<line class="st1" x1="24.3" y1="68.6" x2="33.2" y2="66.7"/>
</g>
</svg>
