<?xml version="1.0" encoding="utf-8"?>
<!-- Generator: Adobe Illustrator 23.0.1, SVG Export Plug-In . SVG Version: 6.00 Build 0)  -->
<svg version="1.1" id="Layer_1" xmlns="http://www.w3.org/2000/svg" xmlns:xlink="http://www.w3.org/1999/xlink" x="0px" y="0px"
	 viewBox="0 0 600 600" style="enable-background:new 0 0 600 600;" xml:space="preserve">
<style type="text/css">
	.st0{fill:#8F24FB;}
	.st1{fill:#FFFFFF;}
</style>
<g>
	<path class="st0" d="M496.7,597.1H103.3c-55.2,0-99.9-44.7-99.9-99.9V103.9c0-55.2,44.7-99.9,99.9-99.9h393.3
		c55.2,0,99.9,44.7,99.9,99.9v393.3C596.6,552.4,551.8,597.1,496.7,597.1z"/>
	<g>
		<path class="st1" d="M170.9,116.2h51.5v369.1h-51.5V116.2z M201.4,437.3h100c26.2,0,45.3-5,57.4-15c12-10,18-24,18-42.1v-0.8
			c0-12.5-2.2-23.3-6.5-32.2c-4.3-9-11.1-15.9-20.4-20.7c-9.3-4.8-21.2-7.2-35.8-7.2H201.4v-46.7h112.7c19.1,0,33.5-4.5,43.3-13.5
			c9.7-9,14.6-22.2,14.6-39.9c0-18.4-5.4-32.2-16.2-41.4c-10.8-9.1-27.1-13.7-48.7-13.7H201.4v-48h115c23.9,0,43.8,4.1,59.9,12.2
			c16.1,8.1,28.1,19.6,36,34.5c8,14.9,11.9,32.7,11.9,53.3c0,12.7-2.5,24.6-7.4,35.7c-4.9,11.1-12.4,20.6-22.5,28.4
			c-10.1,7.9-22.6,13.2-37.4,15.9c14.9,2.2,27.7,7.5,38.6,15.9c10.8,8.4,19.1,18.8,24.9,31.3c5.8,12.5,8.6,26.1,8.6,40.6v0.8
			c0,20-4.4,37.6-13.2,52.8c-8.8,15.2-21.4,27-37.8,35.3c-16.4,8.3-35.5,12.4-57.4,12.4H201.4V437.3z"/>
	</g>
</g>
</svg>
