<?xml version="1.0" encoding="utf-8"?>
<!-- Generator: Adobe Illustrator 23.0.1, SVG Export Plug-In . SVG Version: 6.00 Build 0)  -->
<svg version="1.1" id="Layer_1" xmlns="http://www.w3.org/2000/svg" xmlns:xlink="http://www.w3.org/1999/xlink" x="0px" y="0px"
	 viewBox="0 0 618.4 612" style="enable-background:new 0 0 618.4 612;" xml:space="preserve">
<style type="text/css">
	.st0{fill:#8F24FB;}
	.st1{fill:#FFFFFF;}
</style>
<g>
	<path class="st0" d="M498.2,594.5H115.7c-53.7,0-97.2-43.5-97.2-97.2V114.7c0-53.7,43.5-97.2,97.2-97.2h382.6
		c53.7,0,97.2,43.5,97.2,97.2v382.6C595.4,551,551.9,594.5,498.2,594.5z"/>
	<g>
		<path class="st1" d="M181.4,126.8h50.1v359h-50.1V126.8z M211,439.1h97.3c25.5,0,44.1-4.9,55.8-14.6c11.7-9.7,17.5-23.4,17.5-41
			v-0.7c0-12.2-2.1-22.6-6.3-31.4c-4.2-8.7-10.8-15.4-19.9-20.1c-9.1-4.7-20.7-7-34.8-7H211v-45.4h109.6c18.6,0,32.6-4.4,42.1-13.1
			c9.5-8.7,14.2-21.6,14.2-38.8c0-17.9-5.3-31.4-15.8-40.2c-10.5-8.9-26.3-13.3-47.4-13.3H211v-46.7h111.8c23.2,0,42.6,4,58.3,11.9
			c15.6,7.9,27.3,19.1,35.1,33.6c7.7,14.5,11.6,31.8,11.6,51.8c0,12.3-2.4,23.9-7.2,34.7c-4.8,10.8-12.1,20-21.8,27.7
			c-9.8,7.7-21.9,12.8-36.4,15.4c14.5,2.1,27,7.3,37.5,15.4c10.5,8.1,18.6,18.3,24.2,30.5c5.6,12.2,8.4,25.3,8.4,39.5v0.7
			c0,19.4-4.3,36.5-12.8,51.4c-8.6,14.8-20.8,26.3-36.8,34.3c-16,8.1-34.6,12.1-55.8,12.1H211V439.1z"/>
	</g>
</g>
</svg>
