<?xml version="1.0" encoding="utf-8"?>
<!-- Generator: Adobe Illustrator 23.0.1, SVG Export Plug-In . SVG Version: 6.00 Build 0)  -->
<svg version="1.1" id="Layer_1" xmlns="http://www.w3.org/2000/svg" xmlns:xlink="http://www.w3.org/1999/xlink" x="0px" y="0px"
	 viewBox="0 0 626.6 612" style="enable-background:new 0 0 626.6 612;" xml:space="preserve">
<style type="text/css">
	.st0{fill:#2DFA71;}
</style>
<path class="st0" d="M594.9,335.2L338.9,591.2c-16.2,16.1-42.3,16.1-58.5,0L24.5,335.2c-16.1-16.1-16.1-42.3,0-58.5l175.6-175.6
	l67.9,64c-2.7,5.8-4.2,12.3-4.2,19.1c0,19.6,12.3,36.4,29.6,42.9l3.3,162.8c-17.9,6.2-30.8,23.3-30.8,43.3
	c0,25.3,20.5,45.8,45.8,45.8c25.3,0,45.8-20.5,45.8-45.8c0-18.7-11.2-34.8-27.3-41.9V229.9l63.3,59.5c-3.4,6.5-5.3,13.8-5.3,21.7
	c0,26.1,21.2,47.3,47.3,47.3c26.1,0,47.3-21.2,47.3-47.3c0-26.1-21.2-47.3-47.3-47.3c-5.7,0-11.2,1-16.3,2.9l-65.6-70
	c1.1-3.9,1.7-8.1,1.7-12.4c0-25.3-20.5-45.8-45.8-45.8c-4.8,0-9.3,0.7-13.7,2.1L227.3,74l53.1-53.1c16.2-16.2,42.3-16.2,58.5,0
	l255.9,255.9C611,292.9,611,319.1,594.9,335.2z"/>
</svg>
