<?xml version="1.0" encoding="utf-8"?>
<!-- Generator: Adobe Illustrator 23.0.1, SVG Export Plug-In . SVG Version: 6.00 Build 0)  -->
<svg version="1.1" id="Layer_1" xmlns="http://www.w3.org/2000/svg" xmlns:xlink="http://www.w3.org/1999/xlink" x="0px" y="0px"
	 viewBox="0 0 650.5 612" style="enable-background:new 0 0 650.5 612;" xml:space="preserve">
<style type="text/css">
	.st0{fill:#FAA72C;}
</style>
<path class="st0" d="M392.6,1.3c-10.2,13.2-10.1,43.5-9.8,58.8c0.9,44.8,22.9,80.5,58,107.2c58.3,44.3,129,48.4,186.4,0.5
	c-5,4.2-8.7,15.3-12.7,20.7c-11.1,15-25.1,28.1-41.5,37.3c-70,39.4-163.7-4.2-200.7-69.9C342.9,103.8,357.5,46.7,392.6,1.3z"/>
<path class="st0" d="M263,30.8c-31.4,61.7-26.4,142.8,9.2,201.2c48.5,79.6,153.2,138,247.6,123.4c49.4-7.6,91.6-36.3,123.8-73.7
	c-2.6,3-3.9,8.7-5.7,12.2c-5.4,10.5-11.7,20.6-18.6,30.2c-21.2,29.4-48.9,54.3-81.9,69.7c-89.8,41.7-200.5,5.8-267.7-61.1
	c-55.1-54.8-83.4-129.5-59.8-206c5-16.1,11.8-31.6,19.9-46.4C239.2,63.1,254.2,48.1,263,30.8z"/>
<path class="st0" d="M103.1,87.4c-7.5,8.3-11,25.5-14.1,35.8c-9.2,30.3-13,62.3-11.4,93.9c5.2,104.1,71.6,200.4,158.3,255
	c84.3,53.1,194.9,78.3,289.8,38.9c38.9-16.1,73-41.9,101.5-72.6c-6.6,7.1-10.5,20.7-15.7,29.1c-14.2,22.9-31.4,44.2-50.9,62.8
	c-62.1,59.1-143,81.2-227.3,71.3c-57.4-6.7-113.1-27.2-161.2-59.2c-28.4-19-53.6-46.9-75.2-73.4C44.9,405.5,9.3,325.2,22.7,241.8
	C32,183.2,63.7,130.9,103.1,87.4z"/>
</svg>
