<?xml version="1.0" encoding="utf-8"?>
<!-- Generator: Adobe Illustrator 23.0.1, SVG Export Plug-In . SVG Version: 6.00 Build 0)  -->
<svg version="1.1" id="Layer_1" xmlns="http://www.w3.org/2000/svg" xmlns:xlink="http://www.w3.org/1999/xlink" x="0px" y="0px"
	 viewBox="0 0 792 612" style="enable-background:new 0 0 792 612;" xml:space="preserve">
<style type="text/css">
	.st0{fill:#8F24FB;}
	.st1{fill:#45138C;}
	.st2{fill:#408E17;}
	.st3{fill:#297207;}
	.st4{fill:#D1D1D1;}
</style>
<path class="st0" d="M163.9,76.5c0,0,60.1-58.4,234.2-59.3c174.1-0.9,232,59.3,232,59.3S759.2,418,397,582.6
	C397,582.6,45.4,440.8,163.9,76.5z"/>
<path class="st1" d="M200.2,109.6c0,0,50.7-49.3,197.6-50c146.9-0.7,195.8,50,195.8,50s108.9,288.2-196.7,427.1
	C396.9,536.8,100.1,417.1,200.2,109.6z"/>
<path class="st2" d="M396.1,397.2c0,4.5,0.2,9.2,0.8,14c-4.7,24.6-8.2,40.6-8.2,40.6c-56.7-51.3-93.6-121.5-82-199.2
	c4.8-32.6,16.2-64.7,33.3-92.9c8.6-14.2,18.7-27.5,30.8-38.9c6-5.7,11.4-11.3,16.5-17.9c1.8-2.3,8.8-9.3,8.8-12.4
	c0.8,101.8,1.8,203.5,0.1,305.3C396.1,396.3,396.1,396.8,396.1,397.2z"/>
<path class="st3" d="M424.3,437.8c-3.4,3.3-6.9,6.5-10.4,9.7c-1.2,1.1-7.9-8.4-8.3-9c-4.9-7.8-7.5-17.6-8.7-27.2
	c-0.6-4.8-0.8-9.5-0.8-14c0-0.4,0-0.9,0-1.3c1.6-101.8,0.7-203.5-0.1-305.3c0,0,0.7,1.7,2.1,4.5c2.6,5.4,5.7,10.3,9.2,14.9
	c11.2,15.3,25.6,27.8,36.8,43.6C507.7,242.8,503.4,360.4,424.3,437.8z"/>
<path class="st4" d="M405.8,501l-9.6-2.2c2.7-20.6-7.5-47-7.5-47s3.5-16,8.2-40.6c1.2,9.7,3.8,19.4,8.7,27.2c0.4,0.6,7,10,8.3,9
	C400.4,460.1,405.8,501,405.8,501z"/>
</svg>
