<?xml version="1.0" encoding="utf-8"?>
<!-- Generator: Adobe Illustrator 23.0.1, SVG Export Plug-In . SVG Version: 6.00 Build 0)  -->
<svg version="1.1" id="Layer_1" xmlns="http://www.w3.org/2000/svg" xmlns:xlink="http://www.w3.org/1999/xlink" x="0px" y="0px"
	 viewBox="0 0 542 600" style="enable-background:new 0 0 542 600;" xml:space="preserve">
<style type="text/css">
	.st0{fill:#8F24FB;}
	.st1{fill:#45138C;}
	.st2{fill:#408E17;}
	.st3{fill:#297207;}
	.st4{fill:#D1D1D1;}
</style>
<path class="st0" d="M29.3,66.6c0,0,62.7-61,244.6-61.9s242.4,61.9,242.4,61.9S651,423.3,272.7,595.3
	C272.7,595.3-94.5,447.2,29.3,66.6z"/>
<path class="st1" d="M67.1,101.3c0,0,52.9-51.5,206.4-52.2C426.9,48.3,478,101.3,478,101.3s113.8,301-205.4,446.1
	C272.6,547.4-37.4,422.4,67.1,101.3z"/>
<path class="st2" d="M271.8,401.6c0,4.7,0.2,9.6,0.8,14.6c-4.9,25.7-8.6,42.4-8.6,42.4c-59.2-53.6-97.8-126.9-85.7-208.1
	c5.1-34,17-67.5,34.7-97c8.9-14.8,19.6-28.7,32.2-40.6c6.3-5.9,11.9-11.8,17.2-18.7c1.8-2.4,9.2-9.7,9.2-12.9
	c0.8,106.3,1.8,212.5,0.1,318.8C271.8,400.7,271.8,401.1,271.8,401.6z"/>
<path class="st3" d="M301.2,444c-3.5,3.4-7.2,6.8-10.9,10.1c-1.3,1.1-8.2-8.7-8.6-9.4c-5.2-8.2-7.9-18.3-9.1-28.4
	c-0.6-5-0.8-9.9-0.8-14.6c0-0.5,0-0.9,0-1.4c1.7-106.3,0.7-212.5-0.1-318.8c0,0,0.8,1.8,2.2,4.7c2.7,5.6,6,10.7,9.6,15.6
	c11.7,16,26.7,29.1,38.5,45.6C388.3,240.3,383.8,363.2,301.2,444z"/>
<path class="st4" d="M281.9,510l-10-2.3c2.8-21.5-7.9-49.1-7.9-49.1s3.7-16.7,8.6-42.4c1.2,10.1,4,20.3,9.1,28.4
	c0.4,0.6,7.4,10.5,8.6,9.4C276.2,467.3,281.9,510,281.9,510z"/>
</svg>
