<?xml version="1.0" encoding="utf-8"?>
<!-- Generator: Adobe Illustrator 23.0.1, SVG Export Plug-In . SVG Version: 6.00 Build 0)  -->
<svg version="1.1" id="Layer_1" xmlns="http://www.w3.org/2000/svg" xmlns:xlink="http://www.w3.org/1999/xlink" x="0px" y="0px"
	 viewBox="0 0 708.3 399.4" style="enable-background:new 0 0 708.3 399.4;" xml:space="preserve">
<style type="text/css">
	.st0{fill:#FAA72C;}
	.st1{font-family:'ArialRoundedMTBold';}
	.st2{font-size:184.5737px;}
	.st3{letter-spacing:5.7;}
	.st4{fill:#8F24FB;}
</style>
<g>
	<path class="st0" d="M556.1,222.2c-5.3-3.9-10.3-8.2-15-12.8c-4.7-4.6-9.1-9.6-13.1-14.9c-4-5.2-7.8-10.7-11.2-16.4
		c-3.5-5.9-5.6-12.2-9.2-17.1l4.1-0.3c-2.5,5.3-4.2,11.1-5.5,17c-0.7,3-1.2,5.9-1.8,9c-0.1,0.3-0.2,0.8-0.3,1.3
		c-0.1,0.4-0.2,0.9-0.4,1.3c-0.3,0.9-0.6,1.7-1.1,2.6c-0.9,1.7-2,3.3-3.7,4.7c-0.9,0.7-1.9,1.3-3,1.6c-1.1,0.4-2.4,0.6-3.5,0.5
		c-2.3-0.1-4.5-1-6.1-2.2c-1.7-1.2-2.9-2.7-4-4.1c-1.1-1.5-1.9-3-2.7-4.5c-1.5-3-2.6-6.1-3.6-9.2c-1-3.1-1.7-6.2-2.4-9.3
		c-0.7-3.1-1.2-6.2-1.7-9.4c-0.4-3.2-0.7-6.4-0.7-9.7c-0.1-3.2,0-6.5,0.3-9.7c0.1-1.6,0.3-3.2,0.5-4.8c0.1-0.8,0.2-1.6,0.4-2.4
		c0.1-0.8,0.3-1.7,0.5-2.6c0.8-3.4,1.9-6.4,2.9-9.2c0.5-1.4,0.9-2.8,1.3-4.1c0.3-1.3,0.6-2.7,0.8-3.8c0.3-2.4-0.1-4-1.2-6.3
		c-0.3-0.6-0.6-1.1-0.9-1.7l-1.2-2l-2.3-4.1c-3-5.5-5.9-11-8.6-16.7c-1.3-2.8-2.6-5.7-3.9-8.6c-1.2-2.9-2.4-5.9-3.5-8.7
		c-2.2-5.7-4.4-11.2-7.3-15.7c-2.9-4.5-7.2-9-11.1-14.5c-1-1.4-1.9-2.9-2.8-4.4c-0.8-1.6-1.6-3.1-2.3-5c-0.7-1.8-1.1-3.8-1.3-5.9
		c-0.2-2.1-0.1-4.4,0.6-6.8c0.7-2.3,2-4.7,3.9-6.5c1.8-1.8,4-2.9,6.1-3.6c2.1-0.7,4.3-1,6.4-1c1.9,0,3.8,0.2,5.5,0.5
		c7.1,1.3,13.2,4,19,7.1c2.9,1.5,5.6,3.1,8.3,4.8c1.1,0.7,2.6,1.5,4.3,2.6c0.8,0.6,1.7,1.2,2.6,2.2c0.4,0.4,0.9,1,1.4,1.6
		c0.2,0.3,0.4,0.7,0.7,1c0.3,0.5-0.3-0.8-1-1.4c-0.8-0.8-1.5-1-1.4-1c-0.1-0.1-0.3-0.1-0.4-0.2c-0.2-0.1-0.3-0.1-0.2-0.1
		c0,0-0.1,0-0.1,0l0.1,0c0,0,0.2,0,0.3,0l0.9,0.1c0.7,0,1.4,0.1,2.1,0.1l2.4,0.1l2.6,0.3c3,0.3,6.2,0.6,9.5,1.2
		c1.6,0.3,3.4,0.6,5,1.1c1.7,0.4,3.3,1,4.9,1.5c3.2,1.1,6.2,2.5,9.1,3.9c2.9,1.4,5.7,3,8.5,4.5l4.1,2.3l4.1,2.5
		c5.5,3.4,10.7,7.2,15.6,11.3c9.8,8.2,18.5,17.6,26.4,27.4c2,2.5,3.9,5,5.7,7.5c1.9,2.6,3.8,5.4,5.4,8.2c3.3,5.6,6.1,11.3,8.7,16.9
		l3.9,8.4l3.9,8.3l7.9,16.7l4,8.4l2,4.2l1,2.1c0.4,0.8,0.7,1.7,1,2.4c1.2,3.1,2.1,5.9,3.3,8.2c0.5,1.1,1.2,2.1,1.6,2.5
		c-0.1,0,0.1,0.1,0.6,0.3c0.4,0.2,1,0.4,1.7,0.6c0.7,0.2,1.5,0.4,2.4,0.8l0.7,0.3l0.5,0.2l1.1,0.5c1.5,0.6,2.9,1.2,4.3,1.9
		c2.9,1.3,5.7,2.6,8.5,4.1c5.6,2.8,11.1,6,16.4,9.4c5.2,3.4,10.4,6.9,15.4,10.8c5,4,9.8,8.4,13.7,13.8l0.1,0.1
		c1.1,1.5,0.7,3.6-0.8,4.6l0,0c-2.1,1.5-4.4,2.2-6.5,2.7c-2.1,0.5-4.1,0.7-6,0.9c-1.9,0.2-3.5,0.4-5.4,0.8l-5.6,1
		c-7.5,1.3-14.9,2.6-22.1,4.4l1-4.1l13.8,13.1c4.6,4.4,9.2,8.7,13.9,12.9c4.7,4.2,9.5,8.4,14.4,12.4c4.9,4,10,7.8,15.2,11.4
		c-5.5-3.1-10.8-6.6-16.1-10.2c-5.2-3.6-10.3-7.5-15.2-11.5c-5-4-9.8-8-14.7-12.1L647.9,226c-1-0.8-1.1-2.3-0.3-3.3
		c0.3-0.4,0.7-0.6,1.1-0.7l0.1,0c7.4-2.2,14.8-3.9,22.3-5.6l5.6-1.2l1.4-0.3l1.5-0.3c1-0.2,2-0.3,2.9-0.5c1.9-0.3,3.7-0.5,5.3-1
		c1.6-0.4,3-1,3.9-1.7l-0.7,4.7c-3.5-4.5-8-8.3-12.8-11.8c-4.8-3.5-10-6.7-15.2-9.8c-5.1-3.1-10.5-5.9-15.9-8.5
		c-2.7-1.3-5.5-2.5-8.3-3.6c-1.4-0.6-2.8-1.1-4.2-1.7l-1.1-0.4L633,180l-0.4-0.1c-0.5-0.2-1.2-0.4-2-0.6c-0.8-0.2-1.7-0.5-2.6-0.9
		c-0.5-0.2-1-0.4-1.6-0.8c-0.3-0.1-0.6-0.4-0.9-0.6c-0.3-0.2-0.7-0.5-0.9-0.7c-1.8-1.7-2.8-3.4-3.7-5c-1.7-3.2-2.7-6.2-3.9-8.9
		c-0.3-0.7-0.5-1.2-0.8-1.8l-1-2.1l-2.1-4.1l-4.1-8.3l-8.2-16.6l-4.1-8.3l-4-8.3c-2.7-5.5-5.4-10.8-8.4-15.8
		c-1.5-2.5-3.1-4.8-4.9-7.1c-1.8-2.4-3.7-4.8-5.6-7.1c-7.6-9.3-15.8-18-25-25.6c-4.6-3.8-9.3-7.2-14.3-10.4l-3.8-2.3l-3.9-2.3
		c-2.6-1.5-5.2-2.9-7.9-4.2c-2.6-1.3-5.3-2.4-7.9-3.4c-1.3-0.5-2.6-0.9-3.9-1.2c-1.3-0.4-2.6-0.6-4-0.9c-2.8-0.5-5.7-0.8-8.8-1.1
		l-2-0.2l-2.2-0.1c-0.8,0-1.6-0.1-2.5-0.1c-0.4,0-0.9-0.1-1.4-0.1c-0.3,0-0.5-0.1-0.8-0.1l-0.5-0.1l-0.7-0.2c-0.1,0-0.2-0.1-0.5-0.2
		c-0.2-0.1-0.5-0.2-0.7-0.3c0,0-0.8-0.3-1.7-1.1c-0.8-0.7-1.4-2-1.2-1.6c0,0,0.1,0.1,0,0.1c0,0,0,0-0.1-0.1c-0.2-0.2-0.5-0.5-1-0.8
		c-0.9-0.6-2.1-1.3-3.6-2.2c-2.6-1.6-5.1-3.1-7.7-4.5c-5.1-2.7-10.4-5-15.5-5.9c-1.3-0.2-2.5-0.3-3.7-0.4c-0.9,0-1.9,0.1-2.7,0.4
		c-0.8,0.3-1.4,0.6-1.8,1c-0.4,0.4-0.6,0.8-0.8,1.4c-0.2,0.6-0.3,1.4-0.2,2.4c0.1,1,0.3,2,0.7,3.1c0.4,1,0.9,2.2,1.5,3.4
		c0.6,1.2,1.3,2.3,2.1,3.5c1.6,2.3,3.4,4.6,5.3,7.1c1.9,2.5,3.9,5,5.8,8c3.6,5.9,5.9,12,8,17.8c1.1,2.9,2.1,5.7,3.2,8.5
		c1.1,2.8,2.3,5.6,3.5,8.3c2.5,5.5,5.2,10.9,8,16.3l2.2,4l1.1,2c0.4,0.8,0.8,1.6,1.2,2.4c0.8,1.7,1.4,3.6,1.7,5.7
		c0.3,2.1,0.3,4.1,0,6c-0.3,1.9-0.7,3.5-1.2,5.2c-0.5,1.6-1,3.2-1.6,4.7c-1.1,3-2.2,5.7-2.9,8.3c-0.2,0.7-0.3,1.3-0.4,1.9
		c-0.1,0.7-0.3,1.4-0.4,2.2c-0.2,1.4-0.4,2.9-0.6,4.3c-0.3,2.9-0.5,5.8-0.5,8.8c0,2.9,0.1,5.9,0.4,8.8c0.3,2.9,0.7,5.9,1.3,8.8
		c1.1,5.8,2.4,11.7,4.7,16.8c1.1,2.5,2.6,4.9,4.2,6.2c0.8,0.7,1.6,1,2.4,1c0.8,0.1,1.4-0.1,2.1-0.6c0.7-0.5,1.5-1.4,2-2.4
		c0.3-0.5,0.6-1.1,0.8-1.7c0.1-0.3,0.2-0.6,0.3-0.9c0.1-0.3,0.2-0.6,0.3-1c0.7-3,1.4-6,2.3-9.1c1.7-6,3.7-12.1,6.8-17.8l0.1-0.1
		c0.6-1.2,2.1-1.6,3.2-1c0.4,0.2,0.7,0.5,0.9,0.8c3.9,6,5.7,12.4,8.6,18c3,5.7,6.3,11.4,10,16.7c3.7,5.4,7.7,10.5,12,15.5
		C546.5,213.3,551.1,218,556.1,222.2z"/>
</g>
<g>
	<path class="st0" d="M487.5,52c2.3-2,5-2.3,7.5-1.7c2.5,0.6,4.9,2.3,6.3,4.7c0.4,0.6,0.6,1.2,0.9,1.8c0.1,0.3,0.2,0.6,0.3,1
		c0.1,0.3,0.1,0.6,0.2,1c0.1,0.7,0.2,1.3,0.2,1.9c0,0.6-0.1,1.3-0.2,1.9c-0.1,0.6-0.3,1.2-0.6,1.8c-0.2,0.6-0.6,1.1-0.9,1.6
		c-0.4,0.5-0.8,1-1.3,1.4c-0.3,0.2-0.5,0.4-0.8,0.7c-0.3,0.2-0.6,0.4-0.9,0.6l-0.3,0.1c-0.1,0.1-0.3,0-0.4-0.1c0,0,0-0.1,0-0.1
		c0-0.9,0.1-1.8,0-2.7l-0.1-1.3c0-0.4,0-0.9-0.2-1.3c-0.3-1.7-0.9-3.4-1.7-4.8c-0.9-1.5-2.1-2.7-3.5-3.7c-0.4-0.2-0.7-0.5-1.1-0.7
		c-0.4-0.2-0.8-0.4-1.2-0.6c-0.8-0.4-1.6-0.7-2.5-0.9c-0.2,0-0.2-0.2-0.2-0.3c0-0.1,0-0.1,0.1-0.1L487.5,52z"/>
</g>
<text transform="matrix(1.0473 0 0 1 -11.7017 356.2899)"><tspan x="0" y="0" class="st0 st1 st2 st3">My</tspan><tspan x="266.3" y="0" class="st4 st1 st2 st3">SQL</tspan></text>
</svg>
