<?xml version="1.0" encoding="utf-8"?>
<!-- Generator: Adobe Illustrator 23.0.1, SVG Export Plug-In . SVG Version: 6.00 Build 0)  -->
<svg version="1.1" id="Layer_1" xmlns="http://www.w3.org/2000/svg" xmlns:xlink="http://www.w3.org/1999/xlink" x="0px" y="0px"
	 viewBox="0 0 560.6 612" style="enable-background:new 0 0 560.6 612;" xml:space="preserve">
<style type="text/css">
	.st0{fill:none;stroke:#2DFA71;stroke-width:35.1804;stroke-linejoin:round;stroke-miterlimit:10;}
	.st1{fill:#2DFA71;}
</style>
<path class="st0" d="M193.6,208.7v247c0,0-6.7,70.4-70.4,37.4c-14.3-7.4-28.5-15-42.3-23.3c-10-6-22.8-10.7-30.1-20.1
	c-10.9-13.8-7.2-34.8-7.1-51.1c0-24.6,0.2-49.2,0.2-73.7c0-38.5,0-77,0-115.5c0-14.7,0-29.5,0-44.2L282.8,29.8L524.5,169v274.7
	L284.2,582.2l-65.9-37.4"/>
<g>
	<g>
		<path class="st1" d="M321.4,446c0,0-6-1.3-18.1-4c-12.1-2.7-23.3-6.7-33.8-12.1c-10.5-5.4-20.2-12.1-29-20.2l27.2-33.5
			c12.6,9.6,25.1,16.8,37.5,21.6c12.4,4.8,24.7,7.2,36.9,7.2c18.1,0,31.7-2.8,40.8-8.4c9.1-5.6,13.6-14.1,13.6-25.3
			c0-7.5-2.5-13.1-7.4-16.9c-4.9-3.7-11.1-6.3-18.4-7.5c-7.3-1.3-17.7-2.4-31-3.5c-1.2,0-2.5,0-3.8-0.1c-1.3-0.1-2.6-0.2-3.8-0.3
			c-0.6,0-1.2,0-1.8-0.1c-0.6-0.1-1.2-0.1-1.8-0.1c-15.1-1.2-28-3.4-38.4-6.6c-10.5-3.2-19.2-9.3-26.2-18.1
			c-7-8.8-10.5-21.5-10.5-38c0-16.5,3.4-30.2,10.1-41.1c6.7-10.9,16.8-19.1,30.1-24.6c13.3-5.5,30-8.2,50.1-8.2
			c12.1,0,23.7,1.1,34.7,3.4c11,2.2,21.5,5.6,31.6,10c10,4.4,19.7,10,29,16.7l-27.7,33.5c-11.7-7.5-23.2-13.1-34.5-16.9
			c-11.3-3.7-22.4-5.6-33.2-5.6c-15.6,0-27.3,2.7-35.1,8c-7.8,5.3-11.7,13.3-11.7,23.9c0,6.3,2.2,11,6.6,14.2
			c4.4,3.1,10,5.2,16.7,6.3c6.7,1.1,16.3,1.9,28.8,2.7c0.9,0.2,1.8,0.2,2.8,0.2c1,0,2,0.1,3,0.2c0.4,0,0.9,0,1.3,0s0.9,0.1,1.3,0.2
			c16.3,1.1,30.2,3.2,41.7,6.5c11.5,3.3,21.1,9.8,28.9,19.6c7.8,9.7,11.7,23.8,11.7,42.3c0,16.8-3.6,30.7-10.8,41.7
			c-7.2,11-18,19.3-32.5,24.8c-14.5,5.5-32.6,8.3-54.5,8.3C328.3,446,321.4,446,321.4,446z"/>
	</g>
</g>
</svg>
