<?xml version="1.0" encoding="utf-8"?>
<!-- Generator: Adobe Illustrator 23.0.1, SVG Export Plug-In . SVG Version: 6.00 Build 0)  -->
<svg version="1.1" id="Layer_1" xmlns="http://www.w3.org/2000/svg" xmlns:xlink="http://www.w3.org/1999/xlink" x="0px" y="0px"
	 viewBox="0 0 539.5 612" style="enable-background:new 0 0 539.5 612;" xml:space="preserve">
<style type="text/css">
	.st0{fill:none;stroke:#2DFA71;stroke-width:36.1667;stroke-linejoin:round;stroke-miterlimit:10;}
	.st1{fill:#2DFA71;}
</style>
<path class="st0" d="M177.7,206v253.9c0,0-6.9,72.3-72.3,38.5c-14.7-7.6-29.3-15.5-43.5-24c-10.3-6.1-23.4-11-31-20.6
	c-11.2-14.2-7.4-35.8-7.3-52.5c0-25.3,0.2-50.5,0.2-75.8c0-39.6,0-79.1,0-118.7c0-15.1,0-30.3,0-45.4L269.4,22.1l248.5,143.1v282.4
	l-247,142.4l-67.7-38.5"/>
<g>
	<g>
		<path class="st1" d="M309.1,449.9c0,0-6.2-1.4-18.6-4.2c-12.4-2.8-24-6.9-34.8-12.5c-10.8-5.5-20.7-12.5-29.8-20.8l28-34.4
			c12.9,9.9,25.8,17.3,38.6,22.2c12.8,4.9,25.4,7.4,37.9,7.4c18.6,0,32.6-2.9,41.9-8.7c9.3-5.8,14-14.4,14-26
			c0-7.7-2.5-13.5-7.6-17.3c-5.1-3.8-11.4-6.4-19-7.7c-7.6-1.3-18.2-2.5-31.9-3.6c-1.2,0-2.5,0-3.9-0.1c-1.4-0.1-2.7-0.2-3.9-0.3
			c-0.6,0-1.2,0-1.8-0.1c-0.6-0.1-1.2-0.1-1.8-0.1c-15.6-1.2-28.7-3.5-39.5-6.8c-10.8-3.3-19.8-9.5-26.9-18.6
			c-7.2-9.1-10.7-22.1-10.7-39.1c0-16.9,3.5-31,10.4-42.3c6.9-11.2,17.3-19.7,31-25.3c13.7-5.6,30.9-8.4,51.5-8.4
			c12.5,0,24.4,1.2,35.7,3.5s22.1,5.7,32.5,10.3c10.3,4.5,20.3,10.3,29.8,17.2l-28.4,34.4c-12-7.7-23.8-13.5-35.5-17.3
			c-11.6-3.8-23-5.8-34.1-5.8c-16,0-28,2.7-36.1,8.2c-8,5.5-12,13.7-12,24.6c0,6.5,2.3,11.3,6.8,14.6c4.5,3.2,10.3,5.4,17.2,6.5
			c6.9,1.1,16.8,2,29.6,2.8c0.9,0.2,1.9,0.2,2.9,0.2c1,0,2,0.1,3.1,0.2c0.5,0,0.9,0,1.4,0c0.5,0,0.9,0.1,1.4,0.2
			c16.8,1.1,31.1,3.3,42.9,6.7c11.8,3.4,21.7,10.1,29.7,20.1c8,10,12,24.5,12,43.4c0,17.3-3.7,31.5-11.1,42.9
			c-7.4,11.3-18.5,19.8-33.4,25.5c-14.9,5.7-33.6,8.6-56,8.6C316.1,449.9,309.1,449.9,309.1,449.9z"/>
	</g>
</g>
</svg>
