<?xml version="1.0" encoding="utf-8"?>
<!-- Generator: Adobe Illustrator 23.0.1, SVG Export Plug-In . SVG Version: 6.00 Build 0)  -->
<svg version="1.1" id="Layer_1" xmlns="http://www.w3.org/2000/svg" xmlns:xlink="http://www.w3.org/1999/xlink" x="0px" y="0px"
	 viewBox="0 0 564.5 612" style="enable-background:new 0 0 564.5 612;" xml:space="preserve">
<style type="text/css">
	.st0{fill:#8F24F9;}
	.st1{fill:#5F00CE;}
	.st2{fill:#BB80FF;}
	.st3{fill:#E4CCFF;}
</style>
<path class="st0" d="M33.2,65.5c0,0,64.6-62.8,251.9-63.7s249.6,63.7,249.6,63.7S673.5,432.9,283.9,610
	C283.9,610-94.3,457.5,33.2,65.5z"/>
<path class="st1" d="M72.2,101.2c0,0,54.5-53,212.6-53.8s210.6,53.8,210.6,53.8s117.2,310-211.6,459.4
	C283.7,560.7-35.4,432,72.2,101.2z"/>
<path class="st2" d="M282.9,410.5c0,4.8,0.2,9.9,0.8,15.1c-5,26.4-8.8,43.7-8.8,43.7c-61-55.2-100.7-130.7-88.3-214.3
	c5.2-35,17.5-69.6,35.8-99.9c9.2-15.3,20.1-29.6,33.1-41.8c6.5-6.1,12.3-12.2,17.7-19.3c1.9-2.5,9.5-10,9.5-13.3
	c0.9,109.5,1.9,218.9,0.1,328.4C282.9,409.6,282.9,410.1,282.9,410.5z"/>
<path class="st0" d="M313.2,454.2c-3.6,3.6-7.4,7-11.2,10.4c-1.3,1.1-8.5-9-8.9-9.7c-5.3-8.4-8.1-18.9-9.4-29.3
	c-0.6-5.1-0.9-10.2-0.8-15.1c0-0.5,0-1,0-1.4c1.7-109.5,0.7-218.9-0.1-328.4c0,0,0.8,1.8,2.3,4.9c2.8,5.8,6.2,11.1,9.9,16.1
	c12,16.5,27.5,29.9,39.6,46.9C402.9,244.4,398.3,371,313.2,454.2z"/>
<path class="st3" d="M293.4,522.2l-10.3-2.3c2.9-22.2-8.1-50.5-8.1-50.5s3.8-17.2,8.8-43.7c1.3,10.4,4.1,20.9,9.4,29.3
	c0.4,0.6,7.6,10.8,8.9,9.7C287.5,478.2,293.4,522.2,293.4,522.2z"/>
</svg>
