<?xml version="1.0" encoding="utf-8"?>
<!-- Generator: Adobe Illustrator 23.0.1, SVG Export Plug-In . SVG Version: 6.00 Build 0)  -->
<svg version="1.1" id="Layer_1" xmlns="http://www.w3.org/2000/svg" xmlns:xlink="http://www.w3.org/1999/xlink" x="0px" y="0px"
	 viewBox="0 0 703.8 427.4" style="enable-background:new 0 0 703.8 427.4;" xml:space="preserve">
<style type="text/css">
	.st0{fill:#8F24F9;}
	.st1{font-family:'ArialRoundedMTBold';}
	.st2{font-size:168.5728px;}
	.st3{letter-spacing:5.7;}
	.st4{fill:#5F00CE;}
</style>
<g>
	<path class="st0" d="M511,272.6c-6.5-4.7-12.6-10-18.4-15.7c-5.8-5.7-11.1-11.8-16.1-18.2c-4.9-6.4-9.5-13.2-13.7-20.1
		c-2.1-3.6-3.8-7.3-5.6-10.9c-1.7-3.6-3.5-7-5.7-10l5.1-0.3c-3.1,6.5-5.1,13.6-6.7,20.8c-0.8,3.6-1.5,7.3-2.3,11
		c-0.1,0.4-0.2,1-0.3,1.6c-0.1,0.5-0.3,1.1-0.5,1.6c-0.3,1.1-0.8,2.1-1.3,3.2c-1.1,2-2.4,4.1-4.6,5.7c-1.1,0.8-2.3,1.6-3.7,2
		c-1.4,0.4-2.9,0.7-4.3,0.6c-2.8-0.1-5.5-1.2-7.5-2.7c-2-1.5-3.6-3.2-4.9-5c-1.3-1.8-2.3-3.6-3.3-5.5c-1.8-3.7-3.2-7.5-4.4-11.2
		c-1.2-3.8-2.1-7.6-3-11.4c-0.8-3.8-1.5-7.6-2-11.5c-0.5-3.9-0.8-7.9-0.9-11.8c-0.1-4,0-7.9,0.3-11.9c0.2-2,0.4-4,0.6-5.9
		c0.1-1,0.3-2,0.4-2.9c0.2-1,0.4-2.1,0.6-3.1c1-4.1,2.4-7.8,3.5-11.3c0.6-1.7,1.1-3.4,1.6-5c0.4-1.6,0.8-3.3,0.9-4.7
		c0.2-1.5,0.1-2.7-0.1-3.9c-0.2-1.2-0.7-2.4-1.3-3.8c-0.3-0.7-0.7-1.4-1.1-2.1l-1.4-2.4l-2.9-5c-3.7-6.7-7.3-13.5-10.6-20.5
		c-1.7-3.5-3.2-7-4.7-10.6c-1.5-3.6-2.9-7.2-4.3-10.7c-2.7-7-5.4-13.7-9-19.3c-1.8-2.7-4-5.6-6.3-8.5c-2.3-2.9-4.8-6-7.2-9.4
		c-1.2-1.7-2.3-3.5-3.4-5.4c-1-1.9-2-3.8-2.8-6.1c-0.8-2.2-1.4-4.6-1.7-7.2c-0.2-2.6-0.2-5.4,0.7-8.3c0.8-2.9,2.5-5.8,4.8-7.9
		c2.3-2.2,4.9-3.6,7.5-4.5c2.6-0.9,5.3-1.2,7.9-1.2c2.3,0.1,4.6,0.2,6.8,0.6c4.4,0.8,8.4,2,12.3,3.5c3.9,1.5,7.5,3.3,11,5.1
		c3.5,1.9,6.9,3.9,10.2,5.9c1.4,0.9,3.2,1.8,5.2,3.2c1,0.7,2.1,1.5,3.2,2.7c0.3,0.3,0.6,0.6,0.8,0.9c0.3,0.3,0.6,0.7,0.8,1.1
		c0.3,0.4,0.5,0.8,0.8,1.3c0.6,0.9-1.1-1.9-1.8-2.1c-0.6-0.5-1.2-0.7-1.3-0.8c-0.3-0.1-0.4-0.2-0.5-0.2l-0.2-0.1c-0.2-0.1-0.1,0,0,0
		l0.4,0.1c0.3,0,0.7,0.1,1.1,0.1c0.8,0.1,1.7,0.1,2.6,0.1l3,0.1l0.4,0l0.3,0l0.3,0l0.7,0.1l1.4,0.2c3.7,0.4,7.6,0.8,11.6,1.5
		c2,0.3,4.1,0.8,6.2,1.3c2.1,0.5,4,1.2,6,1.9c3.9,1.4,7.6,3,11.2,4.8c3.6,1.8,7,3.6,10.4,5.5l5,2.9l5.1,3.1
		c6.7,4.2,13.1,8.8,19.1,13.9c12,10.1,22.7,21.6,32.3,33.6c2.4,3,4.7,6.1,7,9.2c2.4,3.2,4.6,6.6,6.7,10c4.1,6.8,7.5,13.8,10.7,20.7
		l4.8,10.2l4.8,10.2L587,174l4.8,10.2l2.4,5.1l1.2,2.6c0.5,1,0.9,2,1.3,3l2,5.3c0.6,1.7,1.3,3.3,2,4.7c0.7,1.4,1.5,2.6,2,3
		c0,0.1,0,0,0,0c0,0,0,0,0,0c0,0,0,0,0.1,0.1c0.1,0.1,0.3,0.2,0.6,0.3c0.5,0.2,1.3,0.5,2.1,0.8c0.8,0.3,1.8,0.5,2.9,0.9l0.9,0.3
		l0.7,0.3l1.3,0.6c1.8,0.7,3.5,1.5,5.3,2.3c3.5,1.6,7,3.2,10.5,5c6.9,3.5,13.6,7.3,20.1,11.5c6.4,4.2,12.7,8.4,18.9,13.3
		c6.1,4.9,12,10.2,16.8,16.9l0.1,0.1c1.3,1.8,0.9,4.4-0.9,5.7l0,0c-2.6,1.8-5.4,2.7-7.9,3.3c-2.6,0.6-5,0.8-7.3,1.1
		c-1.1,0.1-2.3,0.3-3.3,0.4l-0.8,0.1l-0.9,0.1l-1.7,0.3l-6.9,1.2c-9.1,1.5-18.2,3.2-27.1,5.3l1.2-5l17,16c5.6,5.4,11.3,10.7,17,15.9
		c5.7,5.2,11.6,10.3,17.6,15.2c6,4.9,12.2,9.5,18.6,13.9c-6.8-3.8-13.3-8.1-19.7-12.6c-6.4-4.5-12.6-9.2-18.6-14.1
		c-6.1-4.9-12.1-9.8-18-14.9l-17.7-15.1c-1.2-1-1.3-2.8-0.3-4c0.4-0.4,0.8-0.7,1.4-0.9l0.1,0c9-2.7,18.2-4.8,27.3-6.8l6.8-1.5
		l1.7-0.4l0.9-0.2l0.9-0.2c1.2-0.2,2.4-0.4,3.6-0.6c2.3-0.3,4.5-0.7,6.5-1.2c2-0.5,3.7-1.2,4.8-2.1l-0.9,5.8
		c-4.3-5.5-9.8-10.2-15.7-14.5c-5.9-4.3-12.2-8.2-18.6-12.1c-6.3-3.8-12.8-7.3-19.5-10.4c-3.3-1.6-6.7-3.1-10.1-4.5
		c-1.7-0.7-3.4-1.4-5.1-2.1l-1.3-0.5l-0.6-0.2l-0.5-0.2c-0.7-0.2-1.5-0.4-2.5-0.7c-1-0.3-2-0.6-3.2-1.1c-0.6-0.3-1.2-0.5-2-0.9
		c-0.3-0.2-0.7-0.4-1.1-0.7c-0.4-0.3-0.8-0.6-1.1-0.9c-2.3-2.1-3.5-4.2-4.5-6.2c-2-3.9-3.3-7.6-4.7-10.9c-0.3-0.8-0.7-1.5-1-2.2
		l-1.3-2.5l-2.5-5.1l-5.1-10.1l-10.1-20.3l-5.1-10.2l-4.9-10.2c-3.3-6.7-6.6-13.3-10.3-19.4c-1.9-3.1-3.8-5.9-6-8.8
		c-2.3-2.9-4.5-5.8-6.9-8.7c-9.3-11.4-19.4-22.1-30.6-31.3c-5.6-4.6-11.4-8.9-17.6-12.7l-4.6-2.8l-4.8-2.8c-3.2-1.8-6.4-3.5-9.6-5.1
		c-3.2-1.6-6.4-3-9.7-4.1c-1.6-0.6-3.2-1.1-4.8-1.5c-1.6-0.4-3.2-0.8-4.9-1.1c-3.4-0.6-7-1-10.8-1.4l-2.5-0.3l-2.7-0.1
		c-1,0-2-0.1-3.1-0.2c-0.5,0-1.1-0.1-1.7-0.2c-0.3,0-0.6-0.1-1-0.1c-0.4-0.1-0.8-0.1-1.4-0.3c-0.1,0-0.3-0.1-0.6-0.2
		c-0.2-0.1-0.4-0.1-0.9-0.3c-0.2-0.1-0.9-0.4-1.6-1c-0.8-0.3-2.6-3.2-2.1-2.4c0,0,0.1,0.1,0,0.1c0,0,0,0,0,0c0,0-0.1-0.1-0.1-0.1
		c-0.2-0.2-0.6-0.6-1.2-1c-1.1-0.8-2.6-1.6-4.4-2.7c-3.1-1.9-6.3-3.8-9.4-5.5c-6.3-3.3-12.7-6.2-18.9-7.3c-1.5-0.3-3-0.4-4.5-0.5
		c-1.2,0-2.3,0.1-3.3,0.5c-1,0.3-1.7,0.8-2.2,1.2c-0.5,0.4-0.8,0.9-1,1.7c-0.2,0.7-0.3,1.8-0.2,2.9c0.1,1.2,0.4,2.5,0.9,3.8
		c0.4,1.3,1.1,2.7,1.9,4.1c0.8,1.4,1.6,2.8,2.6,4.2c1.9,2.8,4.1,5.7,6.5,8.7c2.4,3,4.8,6.1,7.1,9.8c4.5,7.2,7.2,14.7,9.9,21.8
		c1.3,3.6,2.6,7,3.9,10.4c1.4,3.4,2.8,6.8,4.3,10.2c3,6.7,6.3,13.4,9.8,19.9l2.6,4.9l1.4,2.5c0.5,0.9,1,1.9,1.5,2.9
		c0.9,2.1,1.8,4.4,2.1,6.9c0.4,2.5,0.3,5.1,0,7.3c-0.3,2.3-0.8,4.3-1.4,6.4c-0.6,2-1.3,3.9-1.9,5.7c-1.4,3.6-2.7,7-3.5,10.2
		c-0.2,0.8-0.4,1.6-0.5,2.4c-0.2,0.9-0.3,1.8-0.5,2.6c-0.3,1.8-0.5,3.5-0.7,5.3c-0.4,3.6-0.6,7.1-0.6,10.7c0,3.6,0.2,7.2,0.5,10.8
		c0.4,3.5,0.9,7.2,1.5,10.8c0.6,3.6,1.4,7.2,2.3,10.6c0.9,3.5,2,6.9,3.5,10c1.4,3.1,3.2,6,5.2,7.6c1,0.8,1.9,1.2,2.9,1.3
		c1,0.1,1.7-0.1,2.6-0.7c0.9-0.6,1.8-1.7,2.5-3c0.3-0.7,0.7-1.3,0.9-2c0.1-0.4,0.2-0.7,0.4-1.1c0.1-0.4,0.2-0.7,0.3-1.2
		c0.9-3.7,1.8-7.4,2.8-11.1c2-7.4,4.5-14.8,8.3-21.8l0.1-0.1c0.8-1.4,2.5-1.9,4-1.2c0.4,0.2,0.8,0.6,1,1c2.4,3.6,4.1,7.5,5.7,11.2
		c1.6,3.7,3.1,7.4,4.9,10.8c3.7,7,7.8,13.9,12.2,20.5c4.5,6.6,9.4,12.9,14.7,18.9C499.1,261.7,504.9,267.3,511,272.6z"/>
</g>
<g>
	<path class="st0" d="M426.9,64.1c0.7-0.6,1.5-1.1,2.2-1.5c0.4-0.2,0.8-0.3,1.2-0.5c0.4-0.1,0.8-0.2,1.2-0.3
		c0.8-0.2,1.6-0.2,2.4-0.2c0.4,0,0.8,0.1,1.2,0.1c0.4,0.1,0.8,0.1,1.2,0.2c3.1,0.7,6,2.9,7.7,5.8c0.5,0.7,0.8,1.5,1.1,2.2
		c0.1,0.4,0.3,0.8,0.4,1.2c0.1,0.4,0.2,0.8,0.2,1.2c0.1,0.8,0.3,1.6,0.2,2.4c0,0.8-0.1,1.6-0.3,2.3c-0.1,0.8-0.4,1.5-0.7,2.2
		c-0.3,0.7-0.7,1.4-1.1,2c-0.5,0.6-1,1.2-1.6,1.8c-0.6,0.6-1.3,1.1-2.1,1.5l-0.3,0.2c-0.2,0.1-0.4,0-0.5-0.1c0-0.1,0-0.1,0-0.2
		c0-1.1,0.1-2.2,0.1-3.3l-0.1-1.6c0-0.5-0.1-1.1-0.2-1.6c-0.3-2.1-1.1-4.1-2.1-5.9c-1-1.8-2.6-3.3-4.3-4.5c-0.4-0.3-0.9-0.6-1.4-0.8
		c-0.5-0.2-0.9-0.5-1.4-0.7c-1-0.5-2-0.8-3-1.1c-0.2,0-0.3-0.2-0.2-0.4c0-0.1,0.1-0.1,0.1-0.2L426.9,64.1z"/>
</g>
<text transform="matrix(1.0473 0 0 1 -5.0384 389.2816)"><tspan x="0" y="0" class="st0 st1 st2 st3">My</tspan><tspan x="243.3" y="0" class="st4 st1 st2 st3">SQL</tspan></text>
</svg>
