<?xml version="1.0" encoding="utf-8"?>
<!-- Generator: Adobe Illustrator 23.0.1, SVG Export Plug-In . SVG Version: 6.00 Build 0)  -->
<svg version="1.1" id="Layer_1" xmlns="http://www.w3.org/2000/svg" xmlns:xlink="http://www.w3.org/1999/xlink" x="0px" y="0px"
	 viewBox="0 0 780 498" style="enable-background:new 0 0 780 498;" xml:space="preserve">
<style type="text/css">
	.st0{fill:none;stroke:#FAA72C;stroke-width:8.308;stroke-linecap:round;stroke-linejoin:round;stroke-miterlimit:10;}
	.st1{fill:none;stroke:#FAA72C;stroke-width:8.308;stroke-linecap:round;stroke-miterlimit:10;}
</style>
<g>
	<path class="st0" d="M237.1,463.7l-194.8,25C25.1,491,9.8,477.5,9.8,460.2V62c0-14.7,11.1-27.1,25.7-28.7l199.6-21.7
		c17.2-1.9,32.2,11.7,32,29l-4.8,394.9C262.1,449.8,251.4,461.9,237.1,463.7z"/>
	<path class="st0" d="M743.4,463.7l-194.8,25c-17.2,2.2-32.5-11.2-32.5-28.6V62c0-14.7,11.1-27.1,25.7-28.7l199.6-21.7
		c17.2-1.9,32.2,11.7,32,29l-4.8,394.9C768.4,449.8,757.6,461.9,743.4,463.7z"/>
	<path class="st0" d="M483.6,488.8l-196.1-25c-14.5-1.9-25.4-14.3-25.2-29l4.8-394.9c0.2-17.1,15.1-30.2,32.1-28.3l191.3,21.6
		c14.6,1.6,25.6,14,25.6,28.7v398.3C516.1,477.6,500.8,491,483.6,488.8z"/>
	<line class="st1" x1="61.9" y1="89.2" x2="222.5" y2="73"/>
	<line class="st1" x1="61.9" y1="141.7" x2="222.5" y2="125.5"/>
	<line class="st1" x1="60.4" y1="194.5" x2="224" y2="177.6"/>
	<line class="st1" x1="309.7" y1="316.1" x2="465.2" y2="337.5"/>
	<line class="st1" x1="309.7" y1="369.5" x2="465.2" y2="387.2"/>
	<line class="st1" x1="309.7" y1="420" x2="465.2" y2="439.9"/>
	<line class="st1" x1="572.3" y1="89.2" x2="732.9" y2="73"/>
	<line class="st1" x1="572.3" y1="141.7" x2="732.9" y2="125.5"/>
	<line class="st1" x1="570.8" y1="194.5" x2="734.4" y2="177.6"/>
	<line class="st1" x1="569.3" y1="337.1" x2="729.9" y2="320.9"/>
	<line class="st1" x1="569.3" y1="389.6" x2="729.9" y2="373.4"/>
	<line class="st1" x1="567.8" y1="442.5" x2="731.4" y2="425.5"/>
</g>
</svg>
