<?xml version="1.0" encoding="utf-8"?>
<!-- Generator: Adobe Illustrator 23.0.1, SVG Export Plug-In . SVG Version: 6.00 Build 0)  -->
<svg version="1.1" id="Layer_1" xmlns="http://www.w3.org/2000/svg" xmlns:xlink="http://www.w3.org/1999/xlink" x="0px" y="0px"
	 viewBox="0 0 493.4 495.4" style="enable-background:new 0 0 493.4 495.4;" xml:space="preserve">
<style type="text/css">
	.st0{fill:none;stroke:#FAA72C;stroke-width:9.1894;stroke-miterlimit:10;}
	.st1{fill:none;stroke:#FAA72C;stroke-width:9.1894;stroke-linecap:round;stroke-miterlimit:10;}
	.st2{fill:none;stroke:#FAA72C;stroke-width:9.9854;stroke-linecap:round;stroke-miterlimit:10;}
	.st3{fill:none;stroke:#FAA72C;stroke-width:3.6811;stroke-miterlimit:10;}
</style>
<g>
	<path class="st0" d="M431.8,484.2H61.7c-27.8,0-50.4-22.6-50.4-50.4V63.7c0-27.8,22.6-50.4,50.4-50.4h370.1
		c27.8,0,50.4,22.6,50.4,50.4v370.1C482.2,461.6,459.7,484.2,431.8,484.2z"/>
	<line class="st1" x1="49.3" y1="275.9" x2="227.2" y2="275.9"/>
	<line class="st1" x1="49.3" y1="325.6" x2="227.2" y2="325.6"/>
	<line class="st1" x1="49.3" y1="375.3" x2="227.2" y2="375.3"/>
	<line class="st2" x1="32.2" y1="440.3" x2="225.5" y2="440.3"/>
	<line class="st1" x1="49.3" y1="53.2" x2="444.3" y2="53.2"/>
	<line class="st1" x1="49.3" y1="102.9" x2="444.3" y2="102.9"/>
	<line class="st1" x1="49.3" y1="152.6" x2="444.3" y2="152.6"/>
	<line class="st1" x1="49.3" y1="202.3" x2="444.3" y2="202.3"/>
	<g>
		<path class="st3" d="M400.4,323.3v0.2c-1.9-0.1-3.8,0-5.7,0.1v-0.2c0-20.6-16.7-37.3-37.3-37.3c-0.3,0-0.6,0-0.9,0
			c-0.1,0-0.2,0-0.3,0c-0.2,0-0.4,0-0.6,0c-0.1,0-0.2,0-0.3,0c0,0,0,0,0,0c-0.1,0-0.2,0-0.3,0c0,0-0.1,0-0.1,0c-0.2,0-0.5,0-0.7,0.1
			c-0.1,0-0.2,0-0.2,0c-0.1,0-0.1,0-0.2,0c-0.1,0-0.1,0-0.2,0c-0.1,0-0.3,0-0.4,0c-0.1,0-0.2,0-0.3,0c-0.2,0-0.4,0.1-0.6,0.1
			c-0.1,0-0.1,0-0.2,0c-0.3,0-0.5,0.1-0.8,0.1c-0.2,0-0.3,0.1-0.5,0.1c-1.1,0.2-2.2,0.5-3.3,0.8c-0.1,0-0.3,0.1-0.4,0.1
			c-0.5,0.2-1,0.3-1.6,0.5c-0.2,0.1-0.3,0.1-0.5,0.2c-0.5,0.2-1,0.4-1.5,0.6c-0.2,0.1-0.3,0.1-0.5,0.2c-0.7,0.3-1.3,0.6-2,1
			c-0.1,0.1-0.3,0.1-0.4,0.2c-0.8,0.4-1.6,0.9-2.4,1.4c-0.3,0.2-0.6,0.4-0.9,0.6c-0.6,0.4-1.2,0.9-1.8,1.3c-0.2,0.2-0.4,0.3-0.6,0.5
			c-0.1,0.1-0.2,0.1-0.2,0.2c-0.2,0.1-0.4,0.3-0.6,0.4c-0.1,0.1-0.2,0.1-0.3,0.2c-0.2,0.2-0.5,0.4-0.7,0.6c-0.2,0.2-0.4,0.3-0.6,0.5
			c0,0,0,0,0,0c-0.1,0.1-0.2,0.2-0.3,0.3c-0.2,0.2-0.3,0.3-0.5,0.5c-0.4,0.3-0.7,0.7-1,1.1c-0.4,0.4-0.8,0.9-1.2,1.4
			c-0.5,0.6-1,1.2-1.5,1.8c-0.2,0.3-0.4,0.6-0.6,0.8c0,0,0,0.1-0.1,0.1c-0.2,0.3-0.4,0.6-0.6,0.8c-2.9,4.2-4.8,8.9-6,13.9
			c-1.7,7.1-1.9,14.6-1.3,21.6c0.2,2.7,0.7,5.6,1.8,8.2l0,0.1c0.6,1.4,1.3,2.6,2.2,3.8c-0.1-0.1-0.2-0.3-0.3-0.4
			c0,0-0.1-0.1-0.1-0.1c-5-6.5-8.3-14.5-8.9-23.2c-0.1-1-0.1-2.1-0.1-3.1v-0.1c0-0.3,0-0.6,0-0.9c0.5-23.4,19.6-42.3,43.2-42.3
			C381,280.3,400.3,299.5,400.4,323.3z"/>
		<path class="st3" d="M433,395.7c-4,4.4-9,7.9-14.5,10.4c-5.2,2.3-10.9,3.6-16.6,3.8c14.1-0.5,27.7-15.3,33.4-28.3
			c8.7-20.1-2.6-44.2-23.5-50.4c-13.2-3.9-28.3,0-37.7,10.1c-6.7,7.2-8.6,15.5-10.2,24.9c-1,5.5-1.9,11-3.9,16.3
			c-7.2,18.8-25.9,27.4-45.1,27.4c-23.8,0-43.1-19.3-43.1-43.1c0-22.5,19.4-43.7,42.2-44.2h0l0,1.1l0.1,3.1l0,1.3
			c-19.2,0.6-35,17.1-36.4,35.9c0,0.3,0,0.6-0.1,0.9c0,0.6,0,1.2,0,1.9c0,20.6,16.7,37.2,37.2,37.2c9.3,0,18.5-3.6,25.3-9.9
			c0.2-0.2,0.4-0.4,0.6-0.6c0.1-0.1,0.3-0.3,0.4-0.4c5-5.1,7.9-11.6,9.7-18.5c1.5-5.8,2.3-12,2.9-17.8c0.1-0.7,0.2-1.4,0.3-2
			c0-0.1,0-0.2,0.1-0.3c0.2-0.8,0.4-1.6,0.6-2.5c2.8-9,10.2-17.2,18-21.9c1.7-1,3.4-1.9,5.2-2.7c0,0,0.1,0,0.1,0
			c5.2-2.3,10.8-3.6,16.5-4c1.9-0.1,3.8-0.2,5.7-0.1c7.9,0.3,15.8,2.4,22.7,6.4c1.4,0.8,2.7,1.6,3.9,2.6c9.6,7.1,16,18.4,17.1,30.4
			C445.2,374.6,441,386.9,433,395.7z"/>
	</g>
</g>
</svg>
