<?xml version="1.0" encoding="utf-8"?>
<!-- Generator: Adobe Illustrator 23.0.1, SVG Export Plug-In . SVG Version: 6.00 Build 0)  -->
<svg version="1.1" id="Layer_1" xmlns="http://www.w3.org/2000/svg" xmlns:xlink="http://www.w3.org/1999/xlink" x="0px" y="0px"
	 viewBox="0 0 618.4 571.7" style="enable-background:new 0 0 618.4 571.7;" xml:space="preserve">
<style type="text/css">
	.st0{fill:none;stroke:#FAA72C;stroke-width:9.6058;stroke-linecap:round;stroke-linejoin:round;stroke-miterlimit:10;}
	.st1{fill:none;stroke:#FAA72C;stroke-width:9.6058;stroke-linecap:round;stroke-miterlimit:10;}
</style>
<g>
	<path class="st0" d="M279,534.5l-225.2,29c-19.9,2.6-37.6-13-37.6-33.1V70.1c0-17,12.8-31.3,29.7-33.1l230.8-25.1
		c19.9-2.2,37.2,13.5,36.9,33.5l-5.5,456.5C307.9,518.5,295.5,532.4,279,534.5z"/>
	<path class="st0" d="M564,563.5l-226.8-28.9c-16.8-2.1-29.3-16.5-29.1-33.5l5.5-456.6c0.2-19.7,17.5-34.9,37.1-32.7l221.2,25
		c16.9,1.9,29.6,16.2,29.6,33.1v460.5C601.5,550.6,583.9,566.1,564,563.5z"/>
	<line class="st1" x1="76.4" y1="101.5" x2="262.1" y2="82.8"/>
	<line class="st1" x1="76.4" y1="162.2" x2="262.1" y2="143.5"/>
	<line class="st1" x1="74.7" y1="223.3" x2="263.8" y2="203.7"/>
	<line class="st1" x1="362.9" y1="363.9" x2="542.7" y2="388.6"/>
	<line class="st1" x1="362.9" y1="425.6" x2="542.7" y2="446.1"/>
	<line class="st1" x1="362.9" y1="484" x2="542.7" y2="507"/>
</g>
</svg>
