<?xml version="1.0" encoding="utf-8"?>
<!-- Generator: Adobe Illustrator 23.0.1, SVG Export Plug-In . SVG Version: 6.00 Build 0)  -->
<svg version="1.1" id="Layer_1" xmlns="http://www.w3.org/2000/svg" xmlns:xlink="http://www.w3.org/1999/xlink" x="0px" y="0px"
	 viewBox="0 0 669.7 342.8" style="enable-background:new 0 0 669.7 342.8;" xml:space="preserve">
<style type="text/css">
	.st0{fill:none;stroke:#FAA72C;stroke-width:8.4827;stroke-miterlimit:10;}
</style>
<g>
	<path class="st0" d="M612.9,330.6H56.8c-25.6,0-46.3-20.7-46.3-46.3V58.2c0-25.6,20.7-46.3,46.3-46.3h556.1
		c25.6,0,46.3,20.7,46.3,46.3v226.1C659.2,309.8,638.5,330.6,612.9,330.6z"/>
	<line class="st0" x1="273.8" y1="66.1" x2="444.5" y2="66.1"/>
	<line class="st0" x1="273.8" y1="117.3" x2="444.5" y2="117.3"/>
	<line class="st0" x1="273.8" y1="168.5" x2="598.2" y2="168.5"/>
	<line class="st0" x1="273.8" y1="219.6" x2="598.2" y2="219.6"/>
	<line class="st0" x1="273.8" y1="270.8" x2="598.2" y2="270.8"/>
	<path class="st0" d="M193.3,254.3H83.6c-13,0-23.5-10.5-23.5-23.5V121.2c0-13,10.5-23.5,23.5-23.5h109.6c13,0,23.5,10.5,23.5,23.5
		v109.6C216.7,243.8,206.2,254.3,193.3,254.3z"/>
</g>
</svg>
