<?xml version="1.0" encoding="utf-8"?>
<!-- Generator: Adobe Illustrator 23.0.1, SVG Export Plug-In . SVG Version: 6.00 Build 0)  -->
<svg version="1.1" id="Layer_1" xmlns="http://www.w3.org/2000/svg" xmlns:xlink="http://www.w3.org/1999/xlink" x="0px" y="0px"
	 viewBox="0 0 480.3 480.3" style="enable-background:new 0 0 480.3 480.3;" xml:space="preserve">
<style type="text/css">
	.st0{fill:none;stroke:#FAA72C;stroke-width:8.6265;stroke-miterlimit:10;}
	.st1{fill:none;stroke:#FAA72C;stroke-width:8.6265;stroke-linecap:round;stroke-miterlimit:10;}
	.st2{fill:none;stroke:#FAA72C;stroke-width:4;stroke-miterlimit:10;}
</style>
<g>
	<path class="st0" d="M416.8,469.1H61.2c-26.7,0-48.4-21.7-48.4-48.4V65c0-26.7,21.7-48.4,48.4-48.4h355.6
		c26.7,0,48.4,21.7,48.4,48.4v355.6C465.2,447.4,443.6,469.1,416.8,469.1z"/>
	<line class="st1" x1="258.8" y1="54.9" x2="429.7" y2="54.9"/>
	<line class="st1" x1="258.8" y1="102.7" x2="429.7" y2="102.7"/>
	<line class="st1" x1="258.8" y1="150.5" x2="429.7" y2="150.5"/>
	<line class="st1" x1="258.8" y1="198.2" x2="429.7" y2="198.2"/>
	<line class="st1" x1="49.1" y1="246" x2="428.6" y2="246"/>
	<line class="st1" x1="49.1" y1="293.8" x2="428.6" y2="293.8"/>
	<line class="st1" x1="49.1" y1="341.5" x2="428.6" y2="341.5"/>
	<line class="st1" x1="49.1" y1="389.3" x2="428.6" y2="389.3"/>
	<g>
		<path class="st2" d="M172.7,110v0.2c-1.8-0.1-3.6,0-5.5,0.1v-0.2c0-19.8-16.1-35.8-35.8-35.8c-0.3,0-0.6,0-0.8,0
			c-0.1,0-0.2,0-0.3,0c-0.2,0-0.4,0-0.5,0c-0.1,0-0.2,0-0.3,0c0,0,0,0,0,0c-0.1,0-0.2,0-0.3,0c0,0-0.1,0-0.1,0c-0.2,0-0.5,0-0.7,0.1
			c-0.1,0-0.2,0-0.2,0c-0.1,0-0.1,0-0.2,0c-0.1,0-0.1,0-0.2,0c-0.1,0-0.3,0-0.4,0c-0.1,0-0.2,0-0.3,0c-0.2,0-0.4,0.1-0.6,0.1
			c-0.1,0-0.1,0-0.2,0c-0.3,0-0.5,0.1-0.8,0.1c-0.2,0-0.3,0.1-0.5,0.1c-1.1,0.2-2.1,0.5-3.2,0.8c-0.1,0-0.3,0.1-0.4,0.1
			c-0.5,0.2-1,0.3-1.5,0.5c-0.2,0.1-0.3,0.1-0.5,0.2c-0.5,0.2-1,0.4-1.5,0.6c-0.2,0.1-0.3,0.1-0.5,0.2c-0.6,0.3-1.3,0.6-1.9,0.9
			c-0.1,0.1-0.3,0.1-0.4,0.2c-0.8,0.4-1.6,0.9-2.3,1.4c-0.3,0.2-0.6,0.4-0.8,0.5c-0.6,0.4-1.2,0.8-1.8,1.3c-0.2,0.2-0.4,0.3-0.6,0.5
			c-0.1,0.1-0.2,0.1-0.2,0.2c-0.2,0.1-0.4,0.3-0.5,0.4c-0.1,0.1-0.2,0.1-0.3,0.2c-0.2,0.2-0.5,0.4-0.7,0.6c-0.2,0.2-0.4,0.3-0.5,0.5
			c0,0,0,0,0,0c-0.1,0.1-0.2,0.2-0.3,0.2c-0.2,0.1-0.3,0.3-0.5,0.4c-0.3,0.3-0.7,0.7-1,1c-0.4,0.4-0.8,0.9-1.2,1.3
			c-0.5,0.5-0.9,1.1-1.4,1.7c-0.2,0.3-0.4,0.5-0.6,0.8c0,0,0,0.1-0.1,0.1c-0.2,0.3-0.4,0.5-0.6,0.8c-2.8,4-4.6,8.6-5.7,13.3
			c-1.6,6.8-1.8,14-1.2,20.8c0.2,2.6,0.7,5.4,1.7,7.8l0,0.1c0.5,1.3,1.2,2.5,2.1,3.7c-0.1-0.1-0.2-0.3-0.3-0.4c0,0-0.1-0.1-0.1-0.1
			c-4.8-6.2-7.9-13.9-8.5-22.3c-0.1-1-0.1-2-0.1-3v-0.1c0-0.3,0-0.6,0-0.9c0.5-22.5,18.9-40.6,41.5-40.6
			C154,68.7,172.6,87.2,172.7,110z"/>
		<path class="st2" d="M204,179.6c-3.9,4.2-8.7,7.6-13.9,10c-5,2.2-10.5,3.5-15.9,3.7c13.6-0.5,26.6-14.7,32.1-27.2
			c8.4-19.3-2.5-42.4-22.6-48.4c-12.7-3.8-27.2,0-36.2,9.7c-6.5,6.9-8.3,14.9-9.8,23.9c-0.9,5.3-1.8,10.6-3.7,15.6
			c-6.9,18-24.9,26.3-43.3,26.3c-22.9,0-41.4-18.5-41.4-41.4c0-21.6,18.6-42,40.6-42.5h0l0,1l0.1,3l0,1.3
			c-18.5,0.6-33.6,16.5-35,34.5c0,0.3,0,0.6-0.1,0.9c0,0.6,0,1.2,0,1.8c0,19.8,16,35.8,35.8,35.8c9,0,17.8-3.5,24.3-9.6
			c0.2-0.2,0.4-0.4,0.6-0.6c0.1-0.1,0.3-0.3,0.4-0.4c4.8-4.9,7.6-11.1,9.3-17.7c1.5-5.6,2.2-11.5,2.8-17.1c0.1-0.7,0.2-1.3,0.3-1.9
			c0-0.1,0-0.2,0.1-0.3c0.2-0.8,0.4-1.6,0.6-2.4c2.7-8.7,9.8-16.5,17.3-21c1.6-1,3.3-1.8,5-2.6c0,0,0.1,0,0.1,0
			c5-2.2,10.4-3.5,15.9-3.9c1.8-0.1,3.6-0.2,5.5-0.1c7.6,0.3,15.2,2.3,21.8,6.2c1.3,0.8,2.6,1.6,3.8,2.5
			c9.2,6.8,15.4,17.7,16.4,29.2C215.7,159.3,211.7,171.1,204,179.6z"/>
	</g>
</g>
</svg>
