<?xml version="1.0" encoding="utf-8"?>
<!-- Generator: Adobe Illustrator 23.0.1, SVG Export Plug-In . SVG Version: 6.00 Build 0)  -->
<svg version="1.1" id="Layer_1" xmlns="http://www.w3.org/2000/svg" xmlns:xlink="http://www.w3.org/1999/xlink" x="0px" y="0px"
	 viewBox="0 0 666.4 509.2" style="enable-background:new 0 0 666.4 509.2;" xml:space="preserve">
<style type="text/css">
	.st0{fill:none;stroke:#FAA72C;stroke-width:9.1716;stroke-miterlimit:10;}
</style>
<g>
	<path class="st0" d="M489.5,173.3v0.6c-7.1-0.3-14.2-0.1-21.3,0.4v-0.7c-0.1-77.2-62.7-139.7-139.9-139.7c-1.1,0-2.2,0-3.3,0
		c-0.3,0-0.7,0-1,0c-0.7,0-1.4,0-2.1,0.1c-0.3,0-0.7,0-1,0.1c0,0-0.1,0-0.1,0c-0.4,0-0.9,0.1-1.3,0.1c-0.2,0-0.3,0-0.5,0
		c-0.9,0.1-1.8,0.1-2.7,0.2c-0.3,0-0.6,0.1-0.9,0.1c-0.3,0-0.6,0.1-0.8,0.1c-0.2,0-0.4,0-0.6,0.1c-0.5,0-1,0.1-1.5,0.2
		c-0.4,0-0.8,0.1-1.2,0.2c-0.7,0.1-1.4,0.2-2.1,0.3c-0.2,0-0.5,0.1-0.8,0.1c-1,0.1-2,0.3-3,0.5c-0.6,0.1-1.3,0.2-1.9,0.4
		c-4.2,0.8-8.4,1.8-12.5,3.1c-0.5,0.2-1,0.3-1.5,0.5c-2,0.6-3.9,1.3-5.9,2c-0.6,0.2-1.3,0.5-1.9,0.7c-1.9,0.7-3.8,1.5-5.7,2.3
		c-0.6,0.2-1.2,0.5-1.8,0.8c-2.5,1.1-5,2.3-7.5,3.6c-0.5,0.3-1.1,0.5-1.6,0.8c-3.1,1.7-6.2,3.4-9.2,5.3c-1.1,0.7-2.2,1.4-3.3,2.1
		c-2.3,1.6-4.6,3.2-6.9,4.9c-0.8,0.6-1.6,1.2-2.4,1.8c-0.3,0.2-0.6,0.5-0.9,0.7c-0.7,0.5-1.4,1.1-2.1,1.7c-0.3,0.3-0.7,0.6-1,0.8
		c-0.9,0.8-1.8,1.5-2.7,2.3c-0.7,0.6-1.4,1.3-2.1,1.9c-0.1,0.1-0.1,0.1-0.2,0.1c-0.4,0.3-0.7,0.6-1,1c-0.6,0.6-1.2,1.2-1.8,1.7
		c-1.3,1.3-2.6,2.6-3.9,4c-1.6,1.6-3.1,3.3-4.6,5.1c-1.9,2.1-3.7,4.4-5.4,6.6c-0.8,1-1.6,2.1-2.3,3.1c-0.1,0.1-0.1,0.2-0.2,0.3
		c-0.8,1-1.5,2.1-2.2,3.1c-10.7,15.6-17.9,33.4-22.3,52.1c-6.3,26.5-7,54.7-4.7,81.1c0.9,10.2,2.7,20.9,6.6,30.6l0.1,0.3
		c2.1,5.1,4.8,9.9,8.3,14.3c-0.4-0.5-0.8-1-1.2-1.5c-0.1-0.2-0.3-0.3-0.4-0.5c-18.9-24.4-31-54.3-33.4-86.9
		c-0.3-3.9-0.5-7.8-0.5-11.7v-0.5c0-1.2,0-2.4,0-3.6c1.9-87.8,73.7-158.5,162-158.5C416.7,11.8,489.2,84.1,489.5,173.3z"/>
	<path class="st0" d="M611.6,444.7c-15.2,16.5-33.8,29.7-54.3,38.8c-19.5,8.7-40.8,13.7-62.2,14.3c53-2,103.9-57.5,125.1-106.1
		c32.7-75.3-9.6-165.6-88-188.9c-49.6-14.7-106.1,0.1-141.5,38c-25.2,27-32.2,58.2-38.4,93.2c-3.7,20.7-7.1,41.4-14.6,61
		c-27,70.4-97.2,102.7-169,102.7C79.5,497.6,7,425.2,7,336c0-84.3,72.7-163.9,158.4-165.7h0.1l0.1,4.1l0.2,11.7l0.1,4.9
		c-72,2.2-131.2,64.3-136.5,134.7c-0.1,1.1-0.2,2.2-0.2,3.3c-0.1,2.3-0.2,4.6-0.2,7c0,77.1,62.6,139.6,139.7,139.6
		c35,0,69.3-13.6,95-37.3c0.8-0.7,1.5-1.4,2.3-2.2c0.6-0.5,1.1-1.1,1.6-1.6c18.9-19.1,29.6-43.5,36.4-69.2
		c5.8-21.9,8.6-44.9,11-66.6c0.3-2.5,0.7-5.1,1.2-7.6c0.1-0.3,0.1-0.7,0.2-1c0.6-3.1,1.4-6.2,2.4-9.2c10.4-33.9,38.4-64.4,67.7-82
		c6.3-3.7,12.7-7.1,19.4-10c0.1-0.1,0.2-0.1,0.4-0.2c19.5-8.5,40.6-13.5,61.9-15.1c7.1-0.5,14.2-0.6,21.3-0.4
		c29.8,1.1,59.3,9.1,85.1,24c5.1,2.9,10,6.2,14.7,9.6c36.1,26.7,59.9,69.2,64,113.9C657.4,365.5,641.8,411.6,611.6,444.7z"/>
</g>
</svg>
