<?xml version="1.0" encoding="utf-8"?>
<!-- Generator: Adobe Illustrator 23.0.1, SVG Export Plug-In . SVG Version: 6.00 Build 0)  -->
<svg version="1.1" id="Layer_1" xmlns="http://www.w3.org/2000/svg" xmlns:xlink="http://www.w3.org/1999/xlink" x="0px" y="0px"
	 viewBox="0 0 467.1 582.2" style="enable-background:new 0 0 467.1 582.2;" xml:space="preserve">
<style type="text/css">
	.st0{fill:none;stroke:#FAA72C;stroke-width:10.139;stroke-linecap:round;stroke-miterlimit:10;}
</style>
<g>
	<path class="st0" d="M421.7,573.7H44.5c-18.9,0-34.2-15.3-34.2-34.2v-493c0-18.9,15.3-34.2,34.2-34.2h377.2
		c18.9,0,34.2,15.3,34.2,34.2v493C455.9,558.4,440.6,573.7,421.7,573.7z"/>
	<path class="st0" d="M392.4,197H290.7c-14,0-25.4-11.4-25.4-25.4V69.9c0-14,11.4-25.4,25.4-25.4h101.6c14,0,25.4,11.4,25.4,25.4
		v101.6C417.8,185.6,406.4,197,392.4,197z"/>
	<path class="st0" d="M163.3,542.7H55.6c-12.3,0-22.4-10-22.4-22.4V412.6c0-12.3,10-22.4,22.4-22.4h107.7c12.3,0,22.4,10,22.4,22.4
		v107.7C185.7,532.6,175.7,542.7,163.3,542.7z"/>
	<path class="st0" d="M384.7,366.9H81.4c-12.6,0-22.8-10.2-22.8-22.8v-101c0-12.6,10.2-22.8,22.8-22.8h303.3
		c12.6,0,22.8,10.2,22.8,22.8v101C407.5,356.7,397.3,366.9,384.7,366.9z"/>
	<line class="st0" x1="35.7" y1="76.7" x2="228.2" y2="76.7"/>
	<line class="st0" x1="35.7" y1="111.9" x2="228.2" y2="111.9"/>
	<line class="st0" x1="35.7" y1="147.1" x2="228.2" y2="147.1"/>
	<line class="st0" x1="223.6" y1="440.3" x2="416.1" y2="440.3"/>
	<line class="st0" x1="223.6" y1="475.5" x2="416.1" y2="475.5"/>
	<line class="st0" x1="223.6" y1="510.7" x2="416.1" y2="510.7"/>
</g>
</svg>
